<?xml version="1.0" encoding="utf-8"?>
<!-- Generator: Adobe Illustrator 16.0.0, SVG Export Plug-In . SVG Version: 6.00 Build 0)  -->
<!DOCTYPE svg PUBLIC "-//W3C//DTD SVG 1.1//EN" "http://www.w3.org/Graphics/SVG/1.1/DTD/svg11.dtd">
<svg version="1.1" id="Calque_1" xmlns="http://www.w3.org/2000/svg" xmlns:xlink="http://www.w3.org/1999/xlink" x="0px" y="0px"
	 width="1000px" height="1000px" viewBox="0 0 1000 1000" enable-background="new 0 0 1000 1000" xml:space="preserve">
<g id="XMLID_1_">
	<g>
		<path d="M337.1,497.09v115.49c0,5.24-4.26,9.5-9.5,9.5h-16.5c-5.24,0-9.5-4.26-9.5-9.5V497.09c0-5.24,4.26-9.5,9.5-9.5h16.5
			C332.84,487.59,337.1,491.85,337.1,497.09z"/>
		<path d="M337.1,295.59v115.49c0,5.24-4.26,9.5-9.5,9.5h-16.5c-5.24,0-9.5-4.26-9.5-9.5V295.59c0-5.24,4.26-9.5,9.5-9.5h16.5
			C332.84,286.09,337.1,290.35,337.1,295.59z"/>
		<path fill="#C6D300" d="M788,460.09V853c0,3.86-3.14,7-7,7H279c-3.86,0-7-3.14-7-7V460.09H788z M342.1,612.58V497.09
			c0-7.99-6.51-14.5-14.5-14.5h-16.5c-7.99,0-14.5,6.51-14.5,14.5v115.49c0,8,6.51,14.5,14.5,14.5h16.5
			C335.59,627.08,342.1,620.58,342.1,612.58z"/>
		<path fill="#C6D300" d="M788,91v359.09H272V91c0-3.86,3.14-7,7-7h502C784.86,84,788,87.14,788,91z M342.1,411.08V295.59
			c0-7.99-6.51-14.5-14.5-14.5h-16.5c-7.99,0-14.5,6.51-14.5,14.5v115.49c0,8,6.51,14.5,14.5,14.5h16.5
			C335.59,425.58,342.1,419.08,342.1,411.08z"/>
		<path d="M798,91v762c0,9.37-7.63,17-17,17H279c-9.37,0-17-7.63-17-17V91c0-9.37,7.63-17,17-17h502C790.37,74,798,81.63,798,91z
			 M793,460.09v-10h-5V91c0-3.86-3.14-7-7-7H279c-3.86,0-7,3.14-7,7v359.09h-5v10h5V853c0,3.86,3.14,7,7,7h502c3.86,0,7-3.14,7-7
			V460.09H793z"/>
		<rect x="788" y="450.09" width="5" height="10"/>
		<rect x="272" y="450.09" width="516" height="10"/>
		<path d="M342.1,497.09v115.49c0,8-6.51,14.5-14.5,14.5h-16.5c-7.99,0-14.5-6.5-14.5-14.5V497.09c0-7.99,6.51-14.5,14.5-14.5h16.5
			C335.59,482.59,342.1,489.1,342.1,497.09z M337.1,612.58V497.09c0-5.24-4.26-9.5-9.5-9.5h-16.5c-5.24,0-9.5,4.26-9.5,9.5v115.49
			c0,5.24,4.26,9.5,9.5,9.5h16.5C332.84,622.08,337.1,617.82,337.1,612.58z"/>
		<path d="M342.1,295.59v115.49c0,8-6.51,14.5-14.5,14.5h-16.5c-7.99,0-14.5-6.5-14.5-14.5V295.59c0-7.99,6.51-14.5,14.5-14.5h16.5
			C335.59,281.09,342.1,287.6,342.1,295.59z M337.1,411.08V295.59c0-5.24-4.26-9.5-9.5-9.5h-16.5c-5.24,0-9.5,4.26-9.5,9.5v115.49
			c0,5.24,4.26,9.5,9.5,9.5h16.5C332.84,420.58,337.1,416.32,337.1,411.08z"/>
		<rect x="267" y="450.09" width="5" height="10"/>
	</g>
	<g>
	</g>
</g>
</svg>
