<?xml version="1.0" encoding="UTF-8"?>
<svg viewBox="0 0 300.55 295.41" xmlns="http://www.w3.org/2000/svg">
 <g stroke="#000">
  <g stroke-width="10">
   <g fill="#fff">
    <path d="m73.124 211.32c-5.9434-12.357-25.31-34.028-42.967-14.838s7.6236 65.768 27.213 65.575c19.589-0.19318 21.698-38.38 15.755-50.737z"/>
    <path d="m56.008 232.34c-11.412-4.9409-23.156 2.9525-31.513 14.056-10.288 1.4588-23.46 7.1459-18.439 17.017 7.7238 12.496 17.088-1.5546 25.994-3.3498-3.343 6.4141-8.9881 17.916-0.35161 22.262 8.6365 4.3456 12.526-9.0381 17.914-13.404-0.28447 5.5438-3.8333 23.245 13.609 21.344 12.971-2.7103 8.6399-16.842 3.1116-23.532-2.5361-3.7556-8.3783-9.8307-7.2666-13.024 4.3008-9.9232 8.3526-16.427-3.0596-21.368z" stroke-linecap="round" stroke-linejoin="round"/>
    <path d="m229 211.32c5.9434-12.357 25.31-34.028 42.967-14.838s-7.6236 65.768-27.213 65.575c-19.589-0.19318-21.698-38.38-15.755-50.737z"/>
    <path d="m244.53 232.34c11.412-4.9409 23.156 2.9525 31.513 14.056 10.288 1.4588 23.46 7.1459 18.439 17.017-7.7238 12.496-17.088-1.5546-25.994-3.3498 3.343 6.4141 8.9881 17.916 0.35159 22.262-8.6364 4.3456-12.526-9.0381-17.914-13.404 0.28447 5.5438 3.8333 23.245-13.609 21.344-12.971-2.7103-8.6399-16.842-3.1116-23.532 2.5361-3.7556 8.3784-9.8307 7.2666-13.024-4.3008-9.9232-8.3526-16.427 3.0596-21.368z" stroke-linecap="round" stroke-linejoin="round"/>
   </g>
   <path d="m65.959 185.72c-7.2902 6.9628-26.118 21.097-17.5 45.357 8.6184 24.26 63.391 47.29 100.71 48.929 37.323 1.6386 92.438-22.358 100.71-48.929 8.2763-26.571-14.917-32.71-27.143-40.714-30.083-17.29-128.42-23.034-156.79-4.6428z" fill="#bcd35f"/>
  </g>
  <path d="m152.07 216.08c-32.079 0-58.094 20.695-58.094 46.219 0 1.4903 0.1079 2.9833 0.28125 4.4375 17.997 7.4994 38.197 12.516 54.906 13.25 18.504 0.81238 41.376-4.6768 60.75-13.656 0.14337-1.3244 0.21875-2.6773 0.21875-4.0312 0-25.524-25.984-46.219-58.062-46.219z" fill="#e5ff80"/>
  <path d="m65.959 185.72c-7.2902 6.962-26.118 21.096-17.5 45.357 8.6184 24.26 63.391 47.29 100.71 48.928 37.324 1.639 92.438-22.358 100.71-48.928 8.277-26.571-14.916-32.71-27.142-40.715-30.084-17.29-128.42-23.034-156.79-4.642z" fill="#fff" stroke-width="10"/>
  <g stroke-linecap="round">
   <path d="m195.92 202.14s-1.6117 29.478 13.547 30.522c24.688-9.186 7.076-40.016 7.076-40.016-7.4368 0.53873-9.374-8.2542-20.623 9.4937z" fill="#ff80b2" stroke-linejoin="round" stroke-width="5"/>
   <path d="m203.82 200.72c2.2971 1.2503 4.5961 2.4572 6.4286 13.929" fill="none" stroke-width="2.5"/>
  </g>
  <g fill="#fff">
   <path d="m79.53 102.86c-19.534 13.762-49.999 17.938-44.286 49.286 5.7134 31.347 72.129 53.915 115 54.643 42.871 0.72815 109.73-23.166 117.86-54.643 8.1243-31.477-18.91-34.538-38.571-49.286-19.662-14.748-52.316-31.046-79.286-30.357-26.97 0.68892-51.18 16.595-70.714 30.357z" stroke-width="10"/>
   <g stroke-linecap="round" stroke-linejoin="round">
    <path d="m153.56 61.041c0 30.405-18.204 55.053-40.659 55.053s-40.659-24.648-40.659-55.053 18.204-55.053 40.659-55.053 40.659 24.648 40.659 55.053z" stroke-width="8.378"/>
    <path d="m232.86 75.941c0 23.292-17.186 42.174-38.386 42.174s-38.386-18.882-38.386-42.174 17.186-42.174 38.386-42.174 38.386 18.882 38.386 42.174z" stroke-width="11.267"/>
   </g>
  </g>
  <path d="m96.784 40.793c-8.2336 4.9864-10.864 15.695-5.8776 23.929 4.9864 8.2336 15.695 10.864 23.929 5.8776 7.4169-4.4918 10.255-13.622 7.1064-21.41 0.088196 3.247-1.5911 6.5008-4.6725 8.367-4.482 2.7143-10.258 1.4301-12.849-2.8481-2.591-4.2783-1.0312-9.9556 3.4508-12.67 2.241-1.3572 4.7779-1.6948 7.0954-1.1824-5.389-3.3236-12.395-3.5682-18.182-0.062897v-4.6e-5z"/>
  <path d="m143.97 134.02c0 5.9973-3.0528 10.859-6.8185 10.859-3.7658 0-6.8185-4.8618-6.8185-10.859 0-5.9973 3.0528-10.859 6.8185-10.859 3.7658 0 6.8185 4.8618 6.8185 10.859z"/>
  <path d="m166.44 133.27c0 5.9973-3.0528 10.859-6.8185 10.859-3.7658 0-6.8185-4.8618-6.8185-10.859 0-5.9973 3.0528-10.859 6.8185-10.859 3.7658 0 6.8185 4.8618 6.8185 10.859z"/>
  <path d="m188.51 56.805c6.0843 3.6848 8.0281 11.598 4.3433 17.682-3.6848 6.0844-11.598 8.0281-17.682 4.3433-5.4808-3.3192-7.5777-10.066-5.2514-15.821-0.065277 2.3995 1.1758 4.8039 3.4528 6.1829 3.312 2.0058 7.5801 1.0568 9.4948-2.1047 1.9146-3.1615 0.76198-7.3568-2.55-9.3626-1.656-1.0029-3.5307-1.2524-5.2433-0.87373 3.9822-2.456 9.1592-2.6367 13.436-0.0466v9.2e-5z"/>
 </g>
</svg>
