<?xml version="1.0" encoding="UTF-8"?>
<svg enable-background="new 0 0 400 400" version="1.1" viewBox="0 0 400 400" xmlns="http://www.w3.org/2000/svg">
 <polygon points="167.2 197.71 167.2 204.11 167.33 210.51 169.65 216.48 172.08 222.4 176.39 227.13 180.8 231.77 186.53 234.62 192.32 237.36 198.69 237.95 205.07 238.41 211.23 236.66 217.35 234.78 222.46 230.92 227.48 226.96 230.85 221.52 234.11 216.01 235.29 209.72 236.34 203.4 235.16 197.11 233.85 190.85 230.48 185.4 227 180.03 221.9 176.18 216.71 172.42 210.55 170.67 204.36 169.04 197.99 169.64 191.63 170.36 185.9 173.21 180.23 176.18 175.92 180.91 171.7 185.73 169.39 191.7" fill="none"/>
 <path d="m194.47 203.83c-0.256-0.506-0.542-0.994-0.854-1.463 0.454-0.333 0.891-0.695 1.304-1.082-0.057-0.565-0.147-1.123-0.269-1.672 0.544-0.148 1.082-0.328 1.605-0.54 0.152-0.547 0.271-1.1 0.356-1.658 0.56 0.059 1.125 0.085 1.691 0.078 0.338-0.454 0.647-0.927 0.93-1.415 0.5 0.256 1.019 0.486 1.552 0.682 0.48-0.302 0.938-0.63 1.378-0.984 0.374 0.421 0.774 0.822 1.198 1.195 0.555-0.108 1.104-0.248 1.64-0.421 0.197 0.53 0.425 1.045 0.686 1.549 0.558 0.102 1.121 0.168 1.681 0.202-5e-3 0.563 0.021 1.128 0.081 1.694 0.484 0.293 0.982 0.56 1.496 0.792-0.212 0.525-0.39 1.06-0.536 1.609 0.344 0.449 0.712 0.877 1.107 1.28-0.385 0.413-0.747 0.847-1.082 1.304 0.156 0.545 0.349 1.076 0.57 1.596-0.508 0.244-1.002 0.521-1.479 0.826-0.048 0.564-0.064 1.13-0.046 1.692-0.561 0.044-1.121 0.124-1.676 0.235-0.25 0.509-0.467 1.029-0.655 1.562-0.539-0.16-1.089-0.289-1.647-0.388-0.418 0.385-0.808 0.794-1.174 1.222-0.447-0.343-0.912-0.664-1.399-0.955-0.527 0.209-1.039 0.446-1.534 0.715-0.292-0.482-0.612-0.95-0.96-1.396-0.565 3e-3 -1.131 0.041-1.689 0.11-0.098-0.555-0.227-1.104-0.39-1.646-0.529-0.201-1.068-0.372-1.616-0.508 0.11-0.553 0.188-1.113 0.232-1.679-0.421-0.376-0.865-0.73-1.325-1.056 0.303-0.475 0.579-0.969 0.824-1.48zm-21.415-5.088c-1.882 1.388-3.411 3.227-4.436 5.354 1.069 2.104 2.636 3.91 4.543 5.261-1.252 1.978-2.013 4.24-2.2 6.596 1.755 1.577 3.87 2.694 6.137 3.266-0.453 2.294-0.346 4.683 0.331 6.943 2.207 0.837 4.582 1.116 6.903 0.83 0.405 2.303 1.368 4.488 2.816 6.355 2.36-0.019 4.676-0.618 6.735-1.724 1.211 2.001 2.899 3.695 4.922 4.908 2.195-0.868 4.136-2.261 5.659-4.036 1.852 1.427 4.037 2.397 6.363 2.8 1.732-1.603 3.042-3.604 3.818-5.811 2.243 0.664 4.631 0.777 6.944 0.313 1.036-2.12 1.533-4.459 1.461-6.797 2.331-0.192 4.6-0.948 6.59-2.219 0.199-2.351-0.183-4.711-1.095-6.865 2.104-1.02 3.947-2.547 5.344-4.449-0.664-2.264-1.871-4.326-3.496-6.008 1.592-1.711 2.756-3.798 3.372-6.076-1.435-1.874-3.31-3.361-5.434-4.339 0.867-2.171 1.203-4.538 0.952-6.885-2.016-1.229-4.298-1.938-6.631-2.083 0.024-2.338-0.522-4.667-1.604-6.766-2.319-0.416-4.705-0.252-6.936 0.455-0.824-2.189-2.171-4.162-3.937-5.729-2.315 0.449-4.481 1.463-6.304 2.93-1.557-1.746-3.529-3.101-5.741-3.921-1.999 1.254-3.651 2.984-4.82 5.008-2.083-1.063-4.41-1.613-6.769-1.583-1.41 1.893-2.326 4.102-2.688 6.412-2.326-0.24-4.693 0.088-6.882 0.971-0.63 2.274-0.689 4.665-0.188 6.95-2.256 0.617-4.348 1.775-6.069 3.39 0.238 2.349 1.048 4.597 2.34 6.549z" fill="#E8CD00"/>
 <path d="m162 204.17v-7.37l2.52-6.926 2.664-6.873 4.854-5.547 4.964-5.447 6.529-3.42 6.598-3.284 7.324-0.831 7.34-0.682 7.127 1.872 7.089 2.016 5.973 4.322 5.883 4.44 4.005 6.186 3.881 6.267 1.503 7.216 1.354 7.244-1.204 7.271-1.354 7.246-3.75 6.343-3.881 6.269-5.789 4.561-5.881 4.439-7.048 2.164-7.089 2.016-7.349-0.528-7.339-0.68-6.666-3.148-6.595-3.287-5.078-5.344-4.964-5.446-2.804-6.815-2.662-6.871-0.155-7.373zm-63.12-18.499v19.147l0.393 19.145 6.918 17.855 7.283 17.709 12.899 14.148 13.187 13.885 17.141 8.533 17.313 8.184 19.067 1.765 19.098 1.378 18.416-5.241 18.306-5.617 15.283-11.54 15.038-11.851 10.082-16.279 9.743-16.485 3.517-18.821 3.134-18.89-3.521-18.823-3.904-18.744-10.08-16.282-10.411-16.068-15.283-11.539-15.514-11.224-18.416-5.239-18.52-4.861-19.067 1.765-19.025 2.158-17.141 8.536-16.963 8.886-12.9 14.15-12.607 14.413-6.917 17.854-6.549 17.993z" fill="none"/>
 <path d="m103.34 186.45c2.587 2.473 6.092 3.991 9.955 3.991 2.062 0 4.021-0.434 5.795-1.213-1.399-1.34-3.092-2.419-5.031-3.124-3.627-1.323-7.443-1.092-10.719 0.346z" fill="#F19430"/>
 <path d="m116.22 152.16c1.518 3.24 4.239 5.921 7.84 7.318 1.923 0.744 3.909 1.048 5.844 0.96-0.82-1.753-2.014-3.371-3.565-4.729-2.906-2.542-6.547-3.707-10.119-3.549z" fill="#F19430"/>
 <path d="m140.62 124.84c0.249 3.57 1.815 7.055 4.67 9.657 1.523 1.388 3.263 2.39 5.102 3.009-0.133-1.934-0.659-3.872-1.617-5.699-1.791-3.421-4.763-5.822-8.155-6.967z" fill="#F19430"/>
 <path d="m173.24 108.17c-1.059 3.418-0.855 7.233 0.864 10.69 0.919 1.846 2.181 3.409 3.671 4.648 0.576-1.85 0.785-3.848 0.553-5.896-0.434-3.837-2.339-7.149-5.088-9.442z" fill="#F19430"/>
 <path d="m209.68 104.42c-2.223 2.805-3.412 6.435-3.057 10.281 0.191 2.053 0.804 3.966 1.746 5.661 1.202-1.518 2.122-3.305 2.643-5.3 0.98-3.734 0.403-7.512-1.332-10.642z" fill="#F19430"/>
 <path d="m245.02 114.08c-3.086 1.812-5.506 4.769-6.565 8.482-0.561 1.984-0.682 3.989-0.416 5.908 1.672-0.98 3.171-2.314 4.381-3.985 2.264-3.129 3.086-6.86 2.6-10.405z" fill="#F19430"/>
 <path d="m274.48 135.86c-3.532 0.576-6.86 2.458-9.185 5.54-1.243 1.644-2.08 3.469-2.524 5.356 1.912-0.31 3.796-1.012 5.523-2.132 3.242-2.101 5.359-5.281 6.186-8.764z" fill="#F19430"/>
 <path d="m294.08 166.8c-3.505-0.738-7.281-0.183-10.566 1.848-1.754 1.087-3.193 2.487-4.29 4.084 1.897 0.403 3.903 0.426 5.922 5e-3 3.783-0.787 6.905-2.989 8.934-5.937z" fill="#F19430"/>
 <path d="m301.18 202.74c-2.999-1.957-6.724-2.803-10.521-2.095-2.026 0.378-3.874 1.166-5.477 2.258 1.625 1.061 3.487 1.81 5.521 2.146 3.809 0.632 7.522-0.292 10.477-2.309z" fill="#F19430"/>
 <path d="m294.82 238.81c-2.09-2.905-5.255-5.042-9.053-5.752-2.026-0.38-4.032-0.312-5.92 0.127 1.13 1.575 2.598 2.945 4.371 3.996 3.325 1.963 7.119 2.441 10.602 1.629z" fill="#F19430"/>
 <path d="m275.86 270.15c-0.9-3.465-3.08-6.602-6.365-8.635-1.754-1.084-3.646-1.748-5.569-2.02 0.486 1.877 1.36 3.685 2.639 5.306 2.389 3.033 5.751 4.848 9.295 5.349z" fill="#F19430"/>
 <path d="m246.85 292.53c0.414-3.551-0.484-7.267-2.814-10.35-1.24-1.643-2.77-2.946-4.46-3.892-0.227 1.923-0.065 3.926 0.538 5.896 1.135 3.693 3.616 6.6 6.736 8.346z" fill="#F19430"/>
 <path d="m211.72 302.92c1.67-3.165 2.169-6.955 1.114-10.669-0.565-1.983-1.518-3.751-2.754-5.243-0.907 1.713-1.479 3.641-1.626 5.694-0.278 3.853 0.985 7.459 3.266 10.218z" fill="#F19430"/>
 <path d="m175.21 299.91c2.7-2.348 4.536-5.699 4.892-9.546 0.191-2.053-0.06-4.045-0.674-5.883-1.464 1.27-2.693 2.857-3.573 4.722-1.649 3.492-1.775 7.31-0.645 10.707z" fill="#F19430"/>
 <path d="m142.25 283.92c3.366-1.214 6.289-3.676 8.01-7.133 0.919-1.846 1.405-3.794 1.498-5.729-1.822 0.655-3.544 1.69-5.039 3.11-2.798 2.66-4.296 6.18-4.469 9.752z" fill="#F19430"/>
 <path d="m117.3 257.1c3.578 0.084 7.192-1.156 10.044-3.756 1.526-1.39 2.683-3.031 3.467-4.805-1.936-0.047-3.916 0.3-5.821 1.084-3.572 1.467-6.237 4.206-7.69 7.477z" fill="#F19430"/>
 <path d="m103.72 223.08c3.307 1.373 7.125 1.52 10.726 0.126 1.924-0.746 3.594-1.855 4.967-3.227-1.789-0.744-3.759-1.136-5.822-1.096-3.859 0.083-7.334 1.671-9.871 4.197z" fill="#F19430"/>
 <path d="m126.49 204.53c-2.235-5.064-7.3-8.601-13.191-8.601-5.997 0-11.14 3.663-13.308 8.875 2.277 5.163 7.492 8.724 13.486 8.6 5.891-0.122 10.883-3.761 13.013-8.874z" fill="#E8CD00"/>
 <path d="m131.27 177.38c-0.253-5.53-3.699-10.66-9.193-12.786-5.591-2.167-11.709-0.607-15.612 3.469 0.256 5.638 3.833 10.84 9.468 12.89 5.535 2.015 11.506 0.423 15.337-3.573z" fill="#E8CD00"/>
 <path d="m145.55 153.79c1.763-5.249 0.4-11.276-3.953-15.244-4.432-4.042-10.7-4.796-15.813-2.409-1.797 5.352-0.338 11.493 4.174 15.442 4.435 3.878 10.576 4.552 15.592 2.211z" fill="#E8CD00"/>
 <path d="m167.38 136.95c3.537-4.257 4.445-10.369 1.82-15.642-2.672-5.368-8.245-8.336-13.875-7.957-3.609 4.339-4.469 10.594-1.686 15.907 2.731 5.217 8.217 8.064 13.741 7.692z" fill="#E8CD00"/>
 <path d="m193.82 129.13c4.838-2.692 7.892-8.063 7.347-13.929-0.552-5.972-4.675-10.753-10.065-12.432-4.931 2.743-7.992 8.265-7.316 14.223 0.664 5.852 4.747 10.488 10.034 12.138z" fill="#E8CD00"/>
 <path d="m221.3 131.4c5.482-0.763 10.271-4.667 11.883-10.333 1.642-5.768-0.476-11.715-4.895-15.228-5.589 0.776-10.44 4.818-11.962 10.619-1.496 5.696 0.642 11.495 4.974 14.942z" fill="#E8CD00"/>
 <path d="m246.1 143.43c5.386 1.271 11.261-0.642 14.811-5.344 3.613-4.784 3.79-11.096 0.939-15.967-5.492-1.296-11.476 0.721-14.99 5.581-3.455 4.772-3.558 10.949-0.76 15.73z" fill="#E8CD00"/>
 <path d="m264.88 163.61c4.568 3.131 10.738 3.472 15.746 0.369 5.1-3.157 7.54-8.979 6.644-14.549-4.657-3.193-10.964-3.473-15.995-0.212-4.942 3.204-7.272 8.927-6.395 14.392z" fill="#E8CD00"/>
 <path d="m275.1 189.22c3.128 4.569 8.758 7.114 14.549 6.032 5.893-1.102 10.272-5.648 11.448-11.169-3.186-4.657-8.967-7.197-14.837-5.974-5.765 1.2-10.004 5.698-11.16 11.111z" fill="#E8CD00"/>
 <path d="m275.39 216.79c1.263 5.391 5.597 9.8 11.385 10.882 5.895 1.101 11.623-1.555 14.713-6.28-1.288-5.495-5.761-9.95-11.679-10.929-5.811-0.965-11.387 1.696-14.419 6.327z" fill="#E8CD00"/>
 <path d="m265.69 242.6c-0.769 5.48 1.677 11.156 6.686 14.256 5.098 3.159 11.397 2.748 15.985-0.538 0.784-5.589-1.776-11.361-6.94-14.412-5.07-2.999-11.232-2.531-15.731 0.694z" fill="#E8CD00"/>
 <path d="m247.33 263.16c-2.699 4.835-2.467 11.01 1.083 15.711 3.614 4.782 9.637 6.678 15.104 5.271 2.748-4.93 2.442-11.233-1.267-15.946-3.644-4.626-9.559-6.417-14.92-5.036z" fill="#E8CD00"/>
 <path d="m222.78 275.7c-4.262 3.536-6.277 9.376-4.665 15.042 1.642 5.766 6.572 9.709 12.178 10.369 4.344-3.601 6.339-9.589 4.578-15.323-1.724-5.633-6.595-9.439-12.091-10.088z" fill="#E8CD00"/>
 <path d="m195.35 278.53c-5.25 1.756-9.239 6.475-9.784 12.338-0.553 5.973 2.62 11.431 7.61 14.073 5.352-1.792 9.376-6.655 9.808-12.636 0.419-5.874-2.743-11.183-7.634-13.775z" fill="#E8CD00"/>
 <path d="m168.76 271.26c-5.53-0.258-10.956 2.7-13.581 7.973-2.672 5.369-1.684 11.603 2.013 15.868 5.638 0.266 11.146-2.816 13.708-8.24 2.517-5.326 1.484-11.419-2.14-15.601z" fill="#E8CD00"/>
 <path d="m146.58 254.87c-5.062-2.239-11.191-1.439-15.543 2.529-4.433 4.04-5.762 10.213-3.856 15.525 5.163 2.281 11.413 1.396 15.762-2.732 4.269-4.056 5.506-10.111 3.637-15.322z" fill="#E8CD00"/>
 <path d="m131.83 231.58c-3.914-3.916-9.917-5.384-15.409-3.258-5.592 2.169-9.061 7.442-9.204 13.084 3.989 3.992 10.138 5.428 15.683 3.146 5.45-2.238 8.79-7.437 8.93-12.972z" fill="#E8CD00"/>
 <path d="m160.63 204.18c-2.309-4.88-7.275-8.254-13.026-8.254-5.862 0-10.907 3.498-13.158 8.522 2.354 4.975 7.468 8.368 13.331 8.248 5.749-0.12 10.646-3.595 12.853-8.516z" fill="#F19430"/>
 <path d="m163.24 189.38c-0.393-5.38-3.803-10.321-9.167-12.399-5.465-2.119-11.433-0.676-15.347 3.191 0.398 5.491 3.942 10.504 9.451 12.507 5.403 1.967 11.224 0.496 15.063-3.299z" fill="#F19430"/>
 <path d="m171.01 176.53c1.58-5.16 0.183-11-4.066-14.875-4.331-3.948-10.416-4.761-15.465-2.566-1.611 5.261-0.119 11.216 4.295 15.076 4.329 3.787 10.287 4.515 15.236 2.365z" fill="#F19430"/>
 <path d="m182.91 167.36c3.338-4.242 4.146-10.192 1.58-15.339-2.612-5.249-7.993-8.204-13.491-7.982-3.402 4.326-4.164 10.416-1.443 15.61 2.67 5.096 7.964 7.928 13.354 7.711z" fill="#F19430"/>
 <path d="m197.32 163.1c4.644-2.75 7.545-8.005 7.014-13.734-0.539-5.836-4.49-10.535-9.699-12.313-4.734 2.804-7.644 8.209-6.983 14.034 0.648 5.714 4.562 10.268 9.668 12.013z" fill="#F19430"/>
 <path d="m212.29 164.33c5.322-0.886 9.928-4.74 11.503-10.272 1.603-5.638-0.383-11.446-4.596-14.985-5.428 0.903-10.093 4.892-11.582 10.563-1.459 5.564 0.545 11.221 4.675 14.694z" fill="#F19430"/>
 <path d="m225.8 170.89c5.283 1.097 10.968-0.832 14.434-5.421 3.533-4.678 3.781-10.811 1.13-15.636-5.386-1.118-11.178 0.919-14.613 5.667-3.372 4.662-3.552 10.66-0.951 15.39z" fill="#F19430"/>
 <path d="m236.04 181.89c4.529 2.93 10.528 3.185 15.42 0.157 4.982-3.084 7.429-8.715 6.698-14.169-4.619-2.99-10.754-3.186-15.676 2e-3 -4.825 3.128-7.158 8.66-6.442 14.01z" fill="#F19430"/>
 <path d="m241.61 195.84c3.164 4.367 8.667 6.773 14.319 5.716 5.764-1.078 10.079-5.443 11.37-10.794-3.229-4.455-8.882-6.854-14.62-5.658-5.627 1.171-9.804 5.49-11.069 10.736z" fill="#F19430"/>
 <path d="m241.76 210.86c1.375 5.217 5.637 9.448 11.289 10.504 5.761 1.076 11.364-1.435 14.5-5.958-1.401-5.321-5.806-9.598-11.589-10.559-5.673-0.939-11.123 1.579-14.2 6.013z" fill="#F19430"/>
 <path d="m236.48 224.92c-0.603 5.361 1.84 10.845 6.729 13.873 4.986 3.085 11.117 2.765 15.673-0.317 0.617-5.471-1.942-11.049-6.991-14.031-4.95-2.927-10.943-2.548-15.411 0.475z" fill="#F19430"/>
 <path d="m226.47 236.13c-2.498 4.78-2.2 10.778 1.263 15.367 3.535 4.68 9.367 6.595 14.731 5.365 2.55-4.876 2.178-11.002-1.451-15.608-3.559-4.518-9.283-6.33-14.543-5.124z" fill="#F19430"/>
 <path d="m213.1 242.96c-4.061 3.554-5.948 9.255-4.372 14.786 1.605 5.638 6.35 9.531 11.796 10.323 4.137-3.625 6.006-9.474 4.285-15.078-1.688-5.497-6.37-9.255-11.709-10.031z" fill="#F19430"/>
 <path d="m198.15 244.5c-5.07 1.852-8.887 6.485-9.419 12.211-0.541 5.835 2.478 11.182 7.271 13.889 5.168-1.888 9.022-6.665 9.443-12.513 0.413-5.736-2.597-10.933-7.295-13.587z" fill="#F19430"/>
 <path d="m183.66 240.54c-5.395-0.105-10.627 2.835-13.191 7.983-2.615 5.248-1.73 11.321 1.76 15.575 5.504 0.11 10.822-2.952 13.326-8.255 2.457-5.198 1.528-11.132-1.895-15.303z" fill="#F19430"/>
 <path d="m171.58 231.61c-4.99-2.049-10.936-1.197-15.184 2.679-4.332 3.949-5.703 9.932-3.983 15.16 5.09 2.092 11.157 1.154 15.407-2.884 4.17-3.96 5.446-9.828 3.76-14.955z" fill="#F19430"/>
 <path d="m163.54 218.92c-3.914-3.715-9.763-5.066-15.128-2.989-5.465 2.116-8.905 7.202-9.19 12.698 3.991 3.787 9.988 5.107 15.409 2.876 5.318-2.186 8.627-7.196 8.909-12.585z" fill="#F19430"/>
 <path d="m93.601 204.87v-20.133l6.887-18.919 7.273-18.775 13.255-15.155 13.563-14.88 17.836-9.342 18.024-8.975 20.006-2.269 20.049-1.858 19.474 5.11 19.367 5.51 16.313 11.801 16.066 12.134 10.949 16.897 10.599 17.118 4.105 19.712 3.702 19.791-3.295 19.863-3.698 19.79-10.246 17.332-10.6 17.12-15.815 12.461-16.066 12.133-19.247 5.907-19.367 5.508-20.082-1.446-20.05-1.855-18.202-8.604-18.023-8.974-13.869-14.598-13.563-14.88-7.657-18.62-7.275-18.776-0.413-20.128zm-63.119-31.265v31.911l0.656 31.906 11.527 29.758 12.137 29.515 21.499 23.582 21.978 23.138 28.567 14.225 28.851 13.635 31.778 2.942 31.827 2.293 30.694-8.733 30.509-9.363 25.466-19.229 25.065-19.751 16.802-27.133 16.237-27.471 5.864-31.367 5.218-31.485-5.862-31.367-6.507-31.241-16.799-27.132-17.354-26.782-25.467-19.23-25.855-18.705-30.693-8.733-30.866-8.101-31.776 2.944-31.708 3.597-28.569 14.223-28.267 14.809-21.5 23.583-21.01 24.019-11.527 29.756-10.915 29.987z" fill="none"/>
 <path d="m30.68 173.64c-0.13 0.78-0.198 1.581-0.198 2.396 0 7.957 6.449 14.408 14.407 14.408 7.068 0 12.946-5.088 14.173-11.798 1.143-6.727-2.641-13.519-9.283-15.936-7.478-2.72-15.745 1.133-18.466 8.61-0.279 0.769-0.489 1.544-0.633 2.32z" fill="#B9D53F"/>
 <path d="m53.097 113.96c-0.404 0.679-0.756 1.401-1.051 2.162-2.875 7.419 0.81 15.764 8.229 18.638 6.591 2.553 13.911-0.067 17.48-5.88 3.493-5.86 2.417-13.56-2.901-18.212-5.99-5.239-15.093-4.63-20.331 1.358-0.536 0.614-1.012 1.262-1.426 1.934z" fill="#B9D53F"/>
 <path d="m95.555 66.417c-0.622 0.488-1.21 1.034-1.76 1.637-5.359 5.881-4.938 14.993 0.943 20.354 5.222 4.762 12.995 4.962 18.421 0.83 5.377-4.201 7.156-11.77 3.875-18.03-3.692-7.049-12.399-9.77-19.447-6.077-0.723 0.378-1.402 0.809-2.032 1.286z" fill="#B9D53F"/>
 <path d="m152.32 37.419c-0.757 0.23-1.502 0.527-2.233 0.89-7.123 3.546-10.021 12.196-6.475 19.32 3.149 6.326 10.324 9.32 16.877 7.428 6.532-1.977 10.923-8.391 10.127-15.413-0.898-7.907-8.034-13.589-15.941-12.691-0.809 0.091-1.596 0.248-2.355 0.466z" fill="#B9D53F"/>
 <path d="m215.74 30.886c-0.788-0.058-1.592-0.052-2.404 0.023-7.921 0.734-13.75 7.752-13.016 15.676 0.653 7.037 6.259 12.421 13.057 13.024 6.803 0.517 13.214-3.878 15.01-10.714 2.021-7.698-2.583-15.573-10.278-17.592-0.79-0.208-1.583-0.345-2.369-0.417z" fill="#B9D53F"/>
 <path d="m277.22 47.7c-0.715-0.338-1.466-0.623-2.251-0.846-7.651-2.177-15.62 2.262-17.798 9.916-1.936 6.796 1.35 13.844 7.466 16.861 6.157 2.938 13.728 1.158 17.871-4.568 4.661-6.447 3.217-15.456-3.231-20.117-0.661-0.481-1.35-0.895-2.057-1.246z" fill="#B9D53F"/>
 <path d="m328.49 85.592c-0.547-0.575-1.143-1.112-1.795-1.603-6.347-4.793-15.382-3.535-20.18 2.815-4.257 5.64-3.739 13.398 0.876 18.421 4.678 4.965 12.38 6.037 18.312 2.195 6.678-4.327 8.582-13.249 4.254-19.925-0.441-0.685-0.935-1.321-1.467-1.903z" fill="#B9D53F"/>
 <path d="m362.6 139.44c-0.301-0.73-0.664-1.448-1.091-2.143-4.193-6.764-13.071-8.854-19.835-4.665-6.011 3.72-8.331 11.142-5.842 17.492 2.569 6.322 9.36 10.104 16.284 8.661 7.787-1.621 12.787-9.251 11.165-17.04-0.166-0.8-0.396-1.569-0.681-2.305z" fill="#B9D53F"/>
 <path d="m374.96 201.98c-0.016-0.79-0.094-1.588-0.247-2.391-1.461-7.822-8.985-12.977-16.809-11.516-6.945 1.299-11.792 7.38-11.764 14.204 0.114 6.819 5.082 12.801 12.055 13.958 7.851 1.301 15.27-4.01 16.567-11.86 0.135-0.805 0.2-1.605 0.198-2.395z" fill="#B9D53F"/>
 <path d="m363.89 264.76c0.272-0.744 0.485-1.519 0.637-2.318 1.46-7.822-3.694-15.352-11.517-16.811-6.946-1.3-13.661 2.622-16.1 8.992-2.357 6.404 0.112 13.773 6.197 17.368 6.848 4.051 15.686 1.78 19.733-5.068 0.416-0.703 0.764-1.428 1.05-2.163z" fill="#B9D53F"/>
 <path d="m330.89 319.3c0.521-0.594 1.002-1.239 1.43-1.933 4.186-6.765 2.102-15.645-4.665-19.835-6.011-3.72-13.684-2.487-18.26 2.572-4.513 5.116-4.871 12.883-0.497 18.435 4.926 6.25 13.984 7.323 20.232 2.4 0.642-0.505 1.227-1.053 1.76-1.639z" fill="#B9D53F"/>
 <path d="m280.41 358.24c0.7-0.367 1.382-0.797 2.031-1.287 6.348-4.792 7.61-13.829 2.814-20.179-4.26-5.641-11.862-7.267-17.957-4.203-6.057 3.145-9.196 10.258-7.122 17.013 2.337 7.606 10.395 11.883 18 9.549 0.782-0.24 1.527-0.539 2.234-0.893z" fill="#B9D53F"/>
 <path d="m219.28 376.31c0.789-0.089 1.575-0.241 2.36-0.466 7.652-2.176 12.092-10.146 9.914-17.799-1.933-6.798-8.436-11.062-15.228-10.406-6.781 0.743-12.276 6.242-12.785 13.292-0.571 7.936 5.399 14.833 13.336 15.404 0.816 0.059 1.619 0.049 2.403-0.025z" fill="#B9D53F"/>
 <path d="m155.75 371.08c0.764 0.2 1.554 0.343 2.367 0.418 7.922 0.734 14.941-5.092 15.674-13.017 0.653-7.036-3.87-13.359-10.439-15.203-6.593-1.757-13.705 1.385-16.724 7.775-3.4 7.195-0.325 15.781 6.869 19.181 0.74 0.349 1.491 0.631 2.253 0.846z" fill="#B9D53F"/>
 <path d="m98.398 343.25c0.64 0.465 1.327 0.88 2.057 1.244 7.123 3.548 15.771 0.647 19.317-6.475 3.152-6.327 1.219-13.857-4.243-17.947-5.512-4.019-13.277-3.659-18.401 1.209-5.77 5.48-6.001 14.598-0.524 20.367 0.562 0.592 1.164 1.126 1.794 1.602z" fill="#B9D53F"/>
 <path d="m54.971 296.59c0.428 0.663 0.918 1.3 1.468 1.901 5.36 5.881 14.473 6.305 20.353 0.942 5.224-4.763 6.141-12.48 2.526-18.27-3.688-5.738-11.059-8.209-17.595-5.521-7.36 3.027-10.873 11.447-7.847 18.808 0.312 0.753 0.678 1.467 1.095 2.14z" fill="#B9D53F"/>
 <path d="m31.334 237.38c0.161 0.773 0.386 1.546 0.681 2.308 2.875 7.417 11.219 11.104 18.638 8.229 6.59-2.552 10.234-9.422 8.956-16.124-1.366-6.684-7.347-11.649-14.415-11.504-7.954 0.164-14.271 6.747-14.107 14.699 0.017 0.818 0.1 1.615 0.247 2.392z" fill="#B9D53F"/>
 <path d="m65.265 179.74c1.634 6.162 7.25 10.706 13.932 10.706 4.89 0 9.211-2.437 11.816-6.165-1.173-4.394-4.399-8.163-8.994-9.835-6.281-2.285-13.111 0.061-16.754 5.294z" fill="#E8CD00"/>
 <path d="m83.144 132.14c-0.705 6.336 2.894 12.601 9.124 15.015 4.559 1.766 9.468 1.053 13.245-1.479 0.493-4.521-1.154-9.2-4.835-12.421-5.03-4.4-12.247-4.678-17.534-1.115z" fill="#E8CD00"/>
 <path d="m117 94.224c-2.943 5.655-1.854 12.795 3.085 17.297 3.614 3.294 8.449 4.404 12.884 3.404 2.094-4.036 2.249-8.996-0.021-13.328-3.1-5.919-9.729-8.786-15.948-7.373z" fill="#E8CD00"/>
 <path d="m162.28 71.096c-4.789 4.209-6.351 11.262-3.371 17.243 2.178 4.377 6.286 7.159 10.783 7.829 3.409-3.008 5.345-7.577 4.795-12.436-0.753-6.638-5.9-11.707-12.207-12.636z" fill="#E8CD00"/>
 <path d="m212.86 65.885c-5.986 2.196-9.99 8.208-9.376 14.861 0.453 4.868 3.279 8.947 7.231 11.195 4.265-1.572 7.721-5.133 8.962-9.862 1.698-6.463-1.271-13.048-6.817-16.194z" fill="#E8CD00"/>
 <path d="m261.89 79.296c-6.373-0.115-12.28 4.044-14.106 10.471-1.337 4.702-0.177 9.527 2.693 13.052 4.548 0.073 9.058-1.998 11.924-5.96 3.915-5.414 3.527-12.627-0.511-17.563z" fill="#E8CD00"/>
 <path d="m302.78 109.52c-5.903-2.41-12.913-0.666-16.938 4.666-2.947 3.902-3.605 8.821-2.2 13.145 4.208 1.711 9.163 1.407 13.27-1.25 5.606-3.634 7.85-10.5 5.868-16.561z" fill="#E8CD00"/>
 <path d="m329.99 152.46c-4.635-4.378-11.803-5.284-17.482-1.769-4.156 2.577-6.546 6.924-6.799 11.462 3.308 3.119 8.037 4.624 12.822 3.627 6.543-1.362 11.116-6.954 11.459-13.32z" fill="#E8CD00"/>
 <path d="m339.84 202.34c-2.739-5.757-9.094-9.19-15.66-7.965-4.809 0.898-8.608 4.089-10.481 8.233 1.959 4.102 5.825 7.215 10.647 8.012 6.593 1.095 12.874-2.47 15.494-8.28z" fill="#E8CD00"/>
 <path d="m331.01 252.41c-0.472-6.358-5.156-11.855-11.726-13.083-4.806-0.897-9.503 0.705-12.746 3.892 0.343 4.532 2.823 8.83 7.033 11.315 5.75 3.401 12.9 2.35 17.439-2.124z" fill="#E8CD00"/>
 <path d="m304.69 295.91c1.856-6.099-0.529-12.917-6.209-16.435-4.158-2.574-9.116-2.776-13.292-0.979-1.316 4.353-0.556 9.256 2.471 13.096 4.136 5.249 11.178 6.849 17.03 4.318z" fill="#E8CD00"/>
 <path d="m264.44 326.96c3.935-5.019 4.175-12.237 0.147-17.569-2.946-3.901-7.497-5.882-12.04-5.713-2.799 3.583-3.863 8.428-2.429 13.104 1.962 6.388 7.952 10.422 14.322 10.178z" fill="#E8CD00"/>
 <path d="m215.68 341.37c5.481-3.256 8.314-9.901 6.485-16.329-1.34-4.703-4.866-8.192-9.164-9.679-3.904 2.331-6.646 6.467-6.997 11.344-0.48 6.665 3.648 12.593 9.676 14.664z" fill="#E8CD00"/>
 <path d="m165.01 337.2c6.289-1.058 11.33-6.232 11.945-12.884 0.452-4.869-1.578-9.397-5.047-12.335-4.484 0.762-8.535 3.627-10.623 8.05-2.855 6.039-1.149 13.06 3.725 17.169z" fill="#E8CD00"/>
 <path d="m119.27 315.01c6.247 1.286 12.816-1.719 15.793-7.7 2.179-4.376 1.923-9.332-0.25-13.322-4.456-0.909-9.268 0.299-12.814 3.667-4.844 4.6-5.789 11.76-2.729 17.355z" fill="#E8CD00"/>
 <path d="m84.638 277.79c5.359 3.454 12.569 3.025 17.508-1.477 3.613-3.295 5.165-8.006 4.577-12.516-3.827-2.455-8.749-3.066-13.271-1.208-6.181 2.541-9.647 8.879-8.814 15.201z" fill="#E8CD00"/>
 <path d="m65.786 230.58c3.751 5.158 10.628 7.365 16.86 4.951 4.56-1.769 7.708-5.602 8.791-10.019-2.68-3.672-7.05-6.021-11.94-5.92-6.682 0.138-12.204 4.796-13.711 10.988z" fill="#E8CD00"/>
 <path d="m58.367 205.23c-2.062-5.438-7.319-9.302-13.479-9.302-6.263 0-11.592 3.999-13.578 9.579 2.1 5.54 7.51 9.428 13.771 9.299 6.16-0.125 11.336-4.098 13.286-9.576z" fill="#E8CD00"/>
 <path d="m67.501 153.42c0.042-5.813-3.463-11.317-9.206-13.542-5.841-2.264-12.254-0.459-16.121 4.026-0.044 5.926 3.596 11.504 9.481 13.646 5.789 2.107 12.051 0.271 15.846-4.13z" fill="#E8CD00"/>
 <path d="m94.735 108.42c2.137-5.406 0.856-11.805-3.694-15.954-4.628-4.219-11.26-4.855-16.488-2.068-2.18 5.507-0.801 12.026 3.914 16.15 4.636 4.055 11.136 4.606 16.268 1.872z" fill="#E8CD00"/>
 <path d="m136.39 76.285c3.947-4.27 5.064-10.698 2.318-16.211-2.791-5.607-8.744-8.595-14.626-7.884-4.022 4.348-5.091 10.924-2.184 16.473 2.857 5.455 8.72 8.317 14.492 7.622z" fill="#E8CD00"/>
 <path d="m186.83 61.369c5.222-2.554 8.586-8.144 8.018-14.278-0.578-6.236-5.049-11.173-10.79-12.636-5.323 2.602-8.695 8.347-7.99 14.571 0.694 6.12 5.13 10.908 10.762 12.343z" fill="#E8CD00"/>
 <path d="m239.26 65.686c5.793-0.496 10.948-4.493 12.634-10.418 1.716-6.024-0.673-12.244-5.498-15.681-5.9 0.503-11.12 4.643-12.712 10.7-1.564 5.958 0.839 12.024 5.576 15.399z" fill="#E8CD00"/>
 <path d="m286.59 88.649c5.578 1.63 11.832-0.235 15.543-5.15 3.775-4.998 3.796-11.661 0.538-16.608-5.687-1.662-12.049 0.312-15.721 5.386-3.607 4.99-3.558 11.515-0.36 16.372z" fill="#E8CD00"/>
 <path d="m322.43 127.16c4.616 3.537 11.12 4.056 16.358 0.813 5.323-3.298 7.752-9.501 6.498-15.293-4.699-3.605-11.348-4.062-16.603-0.656-5.168 3.351-7.478 9.453-6.253 15.136z" fill="#E8CD00"/>
 <path d="m341.94 176.02c3.023 4.965 8.904 7.799 14.957 6.666 6.155-1.149 10.661-6.059 11.587-11.911-3.082-5.06-9.113-7.887-15.245-6.609-6.032 1.255-10.388 6.111-11.299 11.854z" fill="#E8CD00"/>
 <path d="m342.48 228.62c1.028 5.724 5.485 10.488 11.542 11.62 6.152 1.149 12.128-1.801 15.104-6.922-1.047-5.831-5.65-10.646-11.83-11.67-6.073-1.006-11.894 1.947-14.816 6.972z" fill="#E8CD00"/>
 <path d="m323.98 277.86c-1.109 5.705 1.324 11.762 6.562 15.004 5.324 3.296 11.962 2.703 16.588-0.999 1.13-5.813-1.422-11.969-6.814-15.153-5.302-3.137-11.795-2.484-16.336 1.148z" fill="#E8CD00"/>
 <path d="m288.94 317.1c-3.095 4.924-3.014 11.447 0.697 16.361 3.775 4.997 10.178 6.844 15.83 5.063 3.154-5.015 2.997-11.675-0.88-16.594-3.813-4.838-10.101-6.576-15.647-4.83z" fill="#E8CD00"/>
 <path d="m242.09 341.03c-4.664 3.469-6.942 9.582-5.258 15.507 1.714 6.025 7.017 10.057 12.927 10.44 4.756-3.538 7.014-9.806 5.177-15.793-1.806-5.887-7.044-9.78-12.846-10.154z" fill="#E8CD00"/>
 <path d="m189.76 346.42c-5.604 1.552-9.938 6.429-10.506 12.561-0.578 6.237 2.912 11.913 8.287 14.407 5.71-1.581 10.08-6.61 10.529-12.857 0.442-6.144-3.035-11.664-8.31-14.111z" fill="#E8CD00"/>
 <path d="m139.02 332.55c-5.785-0.579-11.588 2.402-14.332 7.918-2.793 5.605-1.591 12.158 2.521 16.425 5.896 0.589 11.787-2.521 14.461-8.182 2.635-5.572 1.385-11.975-2.65-16.161z" fill="#E8CD00"/>
 <path d="m96.714 301.28c-5.186-2.629-11.676-1.943-16.227 2.204-4.629 4.221-5.874 10.764-3.581 16.228 5.284 2.68 11.9 1.907 16.441-2.405 4.467-4.242 5.616-10.664 3.367-16.027z" fill="#E8CD00"/>
 <path d="m68.563 256.84c-3.886-4.323-10.184-6.03-15.928-3.806-5.84 2.262-9.365 7.916-9.2 13.837 3.958 4.409 10.408 6.079 16.2 3.697 5.698-2.341 9.089-7.918 8.928-13.728z" fill="#E8CD00"/>
 <path d="m92.53 204.88c-2.15-5.251-7.31-8.95-13.333-8.95-6.134 0-11.37 3.831-13.453 9.227 2.192 5.351 7.506 9.074 13.638 8.947 6.023-0.124 11.106-3.93 13.148-9.224z" fill="#B9D53F"/>
 <path d="m99.484 165.44c-0.108-5.675-3.583-10.989-9.2-13.163-5.718-2.218-11.984-0.537-15.875 3.743 0.11 5.783 3.721 11.173 9.485 13.269 5.659 2.06 11.775 0.348 15.59-3.849z" fill="#B9D53F"/>
 <path d="m120.22 131.17c1.947-5.329 0.627-11.54-3.825-15.597-4.531-4.133-10.982-4.83-16.155-2.245-1.985 5.432-0.565 11.763 4.05 15.801 4.533 3.965 10.853 4.577 15.93 2.041z" fill="#B9D53F"/>
 <path d="m151.93 106.71c3.741-4.267 4.753-10.535 2.068-15.927-2.733-5.49-8.496-8.471-14.255-7.928-3.813 4.348-4.775 10.763-1.931 16.197 2.795 5.335 8.467 8.19 14.118 7.658z" fill="#B9D53F"/>
 <path d="m190.34 95.355c5.031-2.626 8.241-8.106 7.682-14.104-0.566-6.107-4.861-10.967-10.427-12.542-5.126 2.675-8.343 8.31-7.651 14.404 0.679 5.987 4.936 10.696 10.396 12.242z" fill="#B9D53F"/>
 <path d="m230.25 98.642c5.643-0.632 10.614-4.583 12.26-10.376 1.679-5.9-0.571-11.984-5.19-15.463-5.751 0.642-10.784 4.735-12.341 10.669-1.529 5.824 0.741 11.756 5.271 15.17z" fill="#B9D53F"/>
 <path d="m266.28 116.12c5.488 1.448 11.55-0.44 15.18-5.247 3.697-4.895 3.798-11.382 0.746-16.294-5.594-1.477-11.767 0.521-15.359 5.491-3.534 4.88-3.558 11.23-0.567 16.05z" fill="#B9D53F"/>
 <path d="m293.57 145.44c4.591 3.333 10.925 3.761 16.047 0.591 5.215-3.23 7.65-9.242 6.582-14.926-4.685-3.397-11.16-3.765-16.308-0.428-5.054 3.274-7.371 9.186-6.321 14.763z" fill="#B9D53F"/>
 <path d="m308.42 182.64c3.08 4.768 8.836 7.456 14.754 6.348 6.027-1.125 10.472-5.852 11.525-11.54-3.135-4.859-9.045-7.541-15.048-6.291-5.897 1.229-10.196 5.905-11.231 11.483z" fill="#B9D53F"/>
 <path d="m308.83 222.68c1.149 5.558 5.543 10.144 11.463 11.25 6.029 1.126 11.881-1.677 14.92-6.597-1.172-5.663-5.713-10.3-11.764-11.302-5.94-0.986-11.637 1.82-14.619 6.649z" fill="#B9D53F"/>
 <path d="m294.74 260.18c-0.934 5.597 1.505 11.459 6.624 14.629 5.215 3.229 11.684 2.731 16.295-0.761 0.955-5.705-1.604-11.665-6.886-14.787-5.181-3.065-11.51-2.507-16.033 0.919z" fill="#B9D53F"/>
 <path d="m268.07 290.05c-2.893 4.881-2.736 11.229 0.896 16.034 3.695 4.895 9.906 6.765 15.468 5.174 2.95-4.974 2.719-11.455-1.076-16.275-3.73-4.73-9.83-6.494-15.288-4.933z" fill="#B9D53F"/>
 <path d="m232.4 308.27c-4.46 3.509-6.606 9.484-4.957 15.277 1.677 5.898 6.794 9.887 12.552 10.411 4.551-3.572 6.673-9.701 4.874-15.567-1.766-5.757-6.816-9.605-12.469-10.121z" fill="#B9D53F"/>
 <path d="m192.56 312.37c-5.429 1.66-9.588 6.456-10.146 12.452-0.566 6.108 2.765 11.677 7.946 14.246 5.533-1.689 9.73-6.636 10.168-12.753 0.435-6.007-2.885-11.421-7.968-13.945z" fill="#B9D53F"/>
 <path d="m153.93 301.81c-5.658-0.416-11.273 2.555-13.958 7.948-2.734 5.491-1.64 11.885 2.264 16.151 5.77 0.425 11.467-2.675 14.089-8.219 2.574-5.443 1.434-11.69-2.395-15.88z" fill="#B9D53F"/>
 <path d="m121.73 278c-5.126-2.429-11.433-1.687-15.884 2.37-4.533 4.133-5.824 10.492-3.728 15.883 5.228 2.478 11.661 1.646 16.109-2.576 4.365-4.15 5.56-10.387 3.503-15.677z" fill="#B9D53F"/>
 <path d="m100.3 244.17c-3.904-4.119-10.053-5.705-15.67-3.529-5.718 2.215-9.218 7.68-9.209 13.462 3.977 4.2 10.276 5.749 15.95 3.418 5.57-2.29 8.933-7.675 8.929-13.351z" fill="#B9D53F"/>
</svg>
