<?xml version="1.0" encoding="UTF-8"?>
<svg width="305.34mm" height="342.89mm" version="1.1" viewBox="0 0 1081.9015 1214.9544" xmlns="http://www.w3.org/2000/svg">
 <g transform="translate(11.429 146.25)">
  <rect x="-11.429" y="-146.25" width="1081.9" height="1214.8" fill="#fff" fill-rule="evenodd"/>
  <rect x="101.36" y="584.14" width="25.356" height="484.56" ry="0" fill="#4dd0e1" fill-rule="evenodd"/>
  <rect transform="matrix(.70711 .70711 -.70711 .70711 0 0)" x="477.07" y="315.93" width="24.482" height="69.949" ry="3.6775" fill="#4dd0e1" fill-rule="evenodd"/>
  <rect transform="matrix(-.70711 .70711 .70711 .70711 0 0)" x="315.89" y="477.11" width="24.482" height="69.949" ry="4.7704" fill="#4dd0e1" fill-rule="evenodd"/>
  <rect x="218.53" y="489.87" width="25.356" height="578.83" ry="0" fill="#ff7043" fill-rule="evenodd"/>
  <rect transform="matrix(.70711 .70711 -.70711 .70711 0 0)" x="488.67" y="161.84" width="24.482" height="69.949" ry="3.6775" fill="#ff7043" fill-rule="evenodd"/>
  <rect transform="matrix(-.70711 .70711 .70711 .70711 0 0)" x="161.8" y="488.72" width="24.482" height="69.949" ry="4.7704" fill="#ff7043" fill-rule="evenodd"/>
  <rect x="335.69" y="617.53" width="25.356" height="451.17" ry="0" fill="#f06292" fill-rule="evenodd"/>
  <rect transform="matrix(.70711 .70711 -.70711 .70711 0 0)" x="665.5" y="172.97" width="24.482" height="69.949" ry="3.6775" fill="#f06292" fill-rule="evenodd"/>
  <rect transform="matrix(-.70711 .70711 .70711 .70711 0 0)" x="172.93" y="665.54" width="24.482" height="69.949" ry="4.7704" fill="#f06292" fill-rule="evenodd"/>
  <rect x="451.98" y="535.34" width="25.356" height="533.36" ry="0" fill="#8bc34a" fill-rule="evenodd"/>
  <rect transform="matrix(.70711 .70711 -.70711 .70711 0 0)" x="687.14" y="30.15" width="24.482" height="69.949" ry="3.6775" fill="#8bc34a" fill-rule="evenodd"/>
  <rect transform="matrix(-.70711 .70711 .70711 .70711 0 0)" x="30.108" y="687.18" width="24.482" height="69.949" ry="4.7704" fill="#8bc34a" fill-rule="evenodd"/>
  <rect x="581.14" y="592.8" width="25.356" height="475.9" ry="0" fill="#ffca28" fill-rule="evenodd"/>
  <rect transform="matrix(.70711 .70711 -.70711 .70711 0 0)" x="814.57" y="-25.069" width="24.482" height="69.949" ry="3.6775" fill="#ffca28" fill-rule="evenodd"/>
  <rect transform="matrix(-.70711 .70711 .70711 .70711 0 0)" x="-25.111" y="814.61" width="24.482" height="69.949" ry="4.7704" fill="#ffca28" fill-rule="evenodd"/>
  <rect x="698.3" y="573.01" width="25.356" height="495.69" ry="0" fill="#d35f5f" fill-rule="evenodd"/>
  <rect transform="matrix(.70711 .70711 -.70711 .70711 0 0)" x="885.18" y="-120.16" width="24.482" height="69.949" ry="3.6775" fill="#d35f5f" fill-rule="evenodd"/>
  <rect transform="matrix(-.70711 .70711 .70711 .70711 0 0)" x="-120.2" y="885.22" width="24.482" height="69.949" ry="4.7704" fill="#d35f5f" fill-rule="evenodd"/>
  <rect x="815.47" y="483.98" width="25.356" height="584.72" ry="0" fill="#009688" fill-rule="evenodd"/>
  <rect transform="matrix(.70711 .70711 -.70711 .70711 0 0)" x="908.57" y="-262.46" width="24.482" height="69.949" ry="3.6775" fill="#009688" fill-rule="evenodd"/>
  <rect transform="matrix(-.70711 .70711 .70711 .70711 0 0)" x="-262.5" y="908.61" width="24.482" height="69.949" ry="4.7704" fill="#009688" fill-rule="evenodd"/>
  <rect x="931.76" y="617.53" width="25.356" height="451.17" ry="0" fill="#6c5353" fill-rule="evenodd"/>
  <rect transform="matrix(.70711 .70711 -.70711 .70711 0 0)" x="1087" y="-248.51" width="24.482" height="69.949" ry="3.6775" fill="#6c5353" fill-rule="evenodd"/>
  <rect transform="matrix(-.70711 .70711 .70711 .70711 0 0)" x="-248.55" y="1087" width="24.482" height="69.949" ry="4.7704" fill="#6c5353" fill-rule="evenodd"/>
  <rect x="101.36" y="-87.216" width="25.356" height="71.858" ry="5.455" fill="#26c6da" fill-rule="evenodd"/>
  <rect transform="rotate(90)" x="-63.965" y="-149.97" width="25.356" height="71.858" ry="5.455" fill="#26c6da" fill-rule="evenodd"/>
  <g transform="translate(116.23 -456.28)" fill="#ff7043" fill-rule="evenodd">
   <rect x="101.36" y="419.76" width="25.356" height="71.858" ry="5.455"/>
   <rect transform="rotate(90)" x="443.01" y="-149.97" width="25.356" height="71.858" ry="5.455"/>
  </g>
  <g transform="translate(234.66 -545.89)" fill="#f06292" fill-rule="evenodd">
   <rect x="101.36" y="419.76" width="25.356" height="71.858" ry="5.455"/>
   <rect transform="rotate(90)" x="443.01" y="-149.97" width="25.356" height="71.858" ry="5.455"/>
  </g>
  <g transform="translate(352.13 -486.53)" fill="#8bc34a" fill-rule="evenodd">
   <rect x="101.36" y="419.76" width="25.356" height="71.858" ry="5.455"/>
   <rect transform="rotate(90)" x="443.01" y="-149.97" width="25.356" height="71.858" ry="5.455"/>
  </g>
  <g transform="translate(480.73 -526.1)" fill="#ffca28" fill-rule="evenodd">
   <rect x="101.36" y="419.76" width="25.356" height="71.858" ry="5.455"/>
   <rect transform="rotate(90)" x="443.01" y="-149.97" width="25.356" height="71.858" ry="5.455"/>
  </g>
  <g transform="translate(598.2 -434.6)" fill="#d35f5f" fill-rule="evenodd">
   <rect x="101.36" y="419.76" width="25.356" height="71.858" ry="5.455"/>
   <rect transform="rotate(90)" x="443.01" y="-149.97" width="25.356" height="71.858" ry="5.455"/>
  </g>
  <g transform="translate(715.67 -512.5)" fill="#009688" fill-rule="evenodd">
   <rect x="101.36" y="419.76" width="25.356" height="71.858" ry="5.455"/>
   <rect transform="rotate(90)" x="443.01" y="-149.97" width="25.356" height="71.858" ry="5.455"/>
  </g>
  <g transform="translate(831.91 -455.62)" fill="#6c5353" fill-rule="evenodd">
   <rect x="101.36" y="419.76" width="25.356" height="71.858" ry="5.455"/>
   <rect transform="rotate(90)" x="443.01" y="-149.97" width="25.356" height="71.858" ry="5.455"/>
  </g>
  <path d="m321.09 274.89q0 21.605-12.16 32.408-11.2 9.9925-31.041 9.9925t-31.041-9.9925q-12.32-10.938-12.32-32.408v-17.419q0-21.47 12.32-32.408 11.2-9.9925 31.041-9.9925t31.041 9.9925q12.16 10.803 12.16 32.408v17.419zm-14.721-17.419q0-16.474-7.6803-24.171-7.0403-7.1568-20.801-7.1568t-20.801 7.1568q-7.8403 7.832-7.8403 24.171v17.419q0 16.339 7.6803 24.171 7.2003 7.1568 20.961 7.1568t20.801-7.1568q7.6803-7.8319 7.6803-24.171v-17.419z" fill="#29b6f6"/>
  <path d="m418.55 246.13q0 16.069-12.64 23.631-11.2 6.6166-32.161 6.6166-3.3601 0-8.3203-0.27009-1.9201 0-4.1602-0.13503-0.96004-0.13503-1.9201-0.13503-0.64003-0.13503-1.6001-0.13503v37.944q0 2.7007-2.8801 2.7007h-8.6403q-2.8801 0-2.8801-2.7007v-94.118q0-2.9708 3.8402-3.3758 11.04-1.0803 26.561-1.0803 20.961 0 32.161 6.4816 12.64 7.2918 12.64 22.821v1.7554zm-14.561-1.7554q0-18.905-30.241-18.905-8.3203 0-16.001 0.54013v39.565l7.8403 0.27007q5.6002 0.27006 8.1603 0.27006 30.241 0 30.241-19.985v-1.7554z" fill="#8d6e63"/>
  <path d="m514.67 224.39q0 2.1605-3.0401 2.1605h-31.201v87.097q0 2.7007-2.8801 2.7007h-8.8003q-2.8801 0-2.8801-2.7007v-87.097h-31.201q-3.2001 0-3.2001-2.1605v-5.9415q0-2.4306 3.2001-2.4306h76.963q3.0401 0 3.0401 2.4306v5.9415z" fill="#ffc107"/>
  <path d="m548.89 313.65q0 2.7007-2.8801 2.7007h-8.8003q-2.8801 0-2.8801-2.7007v-95.064q0-2.5656 2.8801-2.5656h8.8003q2.8801 0 2.8801 2.5656v95.064z" fill="#26a69a"/>
  <path d="m690.75 313.65q0 2.7007-2.8801 2.7007h-8.9603q-2.8801 0-2.8801-2.7007v-59.01q0-18.365-7.3603-23.766-6.5602-4.8612-28.481-4.8612v87.637q0 2.7007-2.8801 2.7007h-8.8003q-2.8801 0-2.8801-2.7007v-87.637q-21.921 0-28.481 4.8612-7.3603 5.4013-7.3603 23.766v59.01q0 2.7007-2.8801 2.7007h-8.9603q-2.8801 0-2.8801-2.7007v-59.01q0-24.711 13.601-32.813 6.5603-3.916 17.921-5.4013 9.6004-1.3503 26.401-1.3503 16.801 0 26.401 1.3503 11.36 1.4854 17.921 5.4013 13.441 8.102 13.441 32.813v59.01z" fill="#4caf50"/>
  <path d="m731.09 313.65q0 2.7007-2.8801 2.7007h-8.8003q-2.8801 0-2.8801-2.7007v-95.064q0-2.5656 2.8801-2.5656h8.8003q2.8801 0 2.8801 2.5656v95.064z" fill="#d35f5f"/>
  <path d="m823.5 300.01q-1.9201 4.9962-6.2402 8.6421-4.6402 4.051-12 6.2116-8.1603 2.4306-19.521 2.4306-7.5203 0-14.881-0.67517-5.1202-0.27007-11.68-1.2153-3.0401-0.4051-3.0401-2.4306v-5.4013q0-2.1605 2.7201-2.1605h0.48001q5.1202 0.40509 13.281 0.54014 7.0403 0.27005 13.12 0.27005 13.6 0 19.361-4.4561 4.9602-3.7809 4.9602-11.478 0-8.102-19.201-18.094l-15.521-7.967q-22.081-11.343-22.081-25.251 0-23.901 38.241-23.901 15.681 0 27.841 1.6204 2.7201 0.40509 2.7201 2.2956v5.8064q0 2.1605-2.7201 2.1605l-13.28-0.54013q-8.0003-0.27005-14.561-0.27005-23.521 0-23.521 12.828 0 7.4268 17.441 16.339l14.721 7.4268q25.121 12.558 25.121 27.547 0 5.2663-1.7601 9.7224z" fill="#ff5722"/>
  <rect x="214.32" y="204.73" width="17.364" height="49.208" ry="3.7355" fill="#26c6da" fill-rule="evenodd"/>
  <rect transform="rotate(90)" x="220.65" y="-247.61" width="17.364" height="49.208" ry="3.7355" fill="#26c6da" fill-rule="evenodd"/>
  <rect x="-9.7074" y="332.4" width="951.46" height="14.561" fill="#ccc" fill-rule="evenodd"/>
  <path d="m925.38 224.39q0 2.1605-3.0401 2.1605h-31.201v87.097q0 2.7007-2.8801 2.7007h-8.8003q-2.8801 0-2.8801-2.7007v-87.097h-31.201q-3.2001 0-3.2001-2.1605v-5.9415q0-2.4306 3.2001-2.4306h76.963q3.0401 0 3.0401 2.4306v5.9415z" fill="#ffc107"/>
 </g>
</svg>
