<?xml version="1.0" encoding="UTF-8"?>
<!DOCTYPE svg  PUBLIC '-//W3C//DTD SVG 1.1//EN'  'http://www.w3.org/Graphics/SVG/1.1/DTD/svg11.dtd'>
<svg enable-background="new 0 0 1851.088 1667.617" version="1.1" viewBox="0 0 1851.088 1667.617" xml:space="preserve" xmlns="http://www.w3.org/2000/svg">
<style type="text/css">
	.st0{enable-background:new    ;}
	.st1{fill:#E6E6E6;}
	.st2{fill:#D44117;}
	.st3{fill:#F2A438;}
	.st4{fill:#6BB427;}
	.st5{fill:#5775B1;}
</style>
<g class="st0">
				<path class="st1" d="m848.5 158.42c12.294-14.993 39.171-3.295 41.043 17.076 1.169 12.627-8.581 21.702-20.876 21.17-19.74-0.87-31.558-24.353-20.167-38.246z"/>
				<path class="st1" d="m784.05 193.13c0.456 0.306 7.067 5.172 7.509 5.496 34.196-35.506 89.122 16.12 57.645 52.693l6.193 6.972c42.656-45.096-29.862-112.78-71.347-65.161z"/>
				<path class="st1" d="m852.03 190.4c-12.93-11.839-38.892-3.973-58.617 22.838 15.053 11.924 26.78 22.55 41.071 37.577 24.414-21.633 30.731-48.342 17.545-60.415h1e-3z"/>
					<path class="st1" d="m781.31 286.83c-0.586-0.575-5.408-5.346-6.028-5.88l45.235-47.997c0.78 0.682 1.239 1.159 7.261 7.073l-46.468 46.804z"/>
					<path class="st1" d="m768.56 274.8c-0.602-0.582-0.663-0.606-6.335-5.439l42.495-50.439c6.041 5.149 6.817 5.782 7.676 6.6l-43.836 49.278z"/>
					<path class="st1" d="m751.87 98.158c6.434-14.206 27.851-14.775 39.582-1.78 11.756 13.471 5.479 30.416-10.057 33.696-19.329 4.063-36.988-15.453-29.525-31.916z"/>
					<path class="st1" d="m698.59 148.34l8.675 3.375c23.773-43.007 90.866-7.644 69.095 36.194l7.698 5.227c30.434-54.325-57.741-101.35-85.468-44.796z"/>
					<path class="st1" d="m763.62 128.19c-18.386-9.666-40.492 10.8-50.794 37.148 15.492 6.751 29.99 13.748 49.169 25.758 12.904-19.159 22.179-52.468 1.624-62.907l1e-3 1e-3z"/>
						<path class="st1" d="m719.73 239.42c-6.502-3.746-5.334-3.108-7.178-4.068l31.49-57.951c2.214 1.162 0.482 0.195 8.795 4.976l-33.107 57.043z"/>
						<path class="st1" d="m704.61 231.17c-0.32-0.181-7.117-3.419-7.449-3.578l28.049-59.692c0.605 0.289 8.521 4.06 9.107 4.386l-29.707 58.884z"/>
					<path class="st1" d="m681.22 53.021c11.34 7.71 13.253 20.949 5.383 29.938-15.016 17.181-46.66 3.581-42.723-18.231 0-10.428 19.394-23.759 37.34-11.707z"/>
					<path class="st1" d="m604.42 126.28c9.107 1.064 7.388 0.848 9.266 1.131 12.578-46.543 85.92-30.451 76.101 17.878l8.797 3.051c3.212-12.614 0.939-25.105-5.237-35.106-22.648-36.028-79.59-29.026-88.927 13.046z"/>
					<path class="st1" d="m662.4 90.802c-22.105-4.927-36.974 25.078-40 48.533 15.1 2.293 33.68 6.414 54.313 12.716 7.545-21.771 8.079-55.987-14.314-61.249h1e-3z"/>
						<polygon class="st1" points="648.08 209.52 639.93 207.35 655.8 143.33 665.6 145.93"/>
						<path class="st1" d="m630.95 205.3c-4.417-1.01-2.381-0.598-8.344-1.709l12.505-64.757c6.949 1.31 4.661 0.841 9.946 2.039l-14.107 64.427z"/>
					<path class="st1" d="m557.27 35.439c21.313 0.338 31.155 23.353 15.619 36.354-15.159 12.753-38.848 2.576-39.303-15.281 0-12.87 11.032-21.261 23.684-21.073z"/>
					<path class="st1" d="m507.34 124.65c5.719-0.475 3.722-0.328 9.331-0.681 3.438-49.204 76.967-46.323 78.473 1.287 1.754 0.144 0.528 4e-3 9.28 1.027 0.89-61.571-95.358-64.072-97.084-1.633z"/>
					<path class="st1" d="m556.63 78.238c-22.378-0.531-30.683 32.654-29.016 55.682 18.71-0.811 42.201-0.249 56.277 0.916 3.258-30.632-8.915-56.306-27.262-56.599l1e-3 1e-3z"/>
						<path class="st1" d="m568.51 197.26c-7.208-0.361-5.284-0.295-8.824-0.344l1.714-65.931c4.039 0.063 1.64-0.025 10.203 0.394l-3.093 65.881z"/>
						<path class="st1" d="m550.03 196.76c-2.591-0.06-4.536-0.022-8.924 0.026l-1.046-65.945c5.025-0.055 7.226-0.096 10.228-0.034l-0.258 65.953z"/>
				<path class="st2" d="m851.35 160.84c12.174-14.598 39.089-3.598 40.929 17.35 1.068 11.766-7.893 21.602-21.044 21.002-19.458-0.936-31.445-24.49-19.885-38.352z"/>
				<path class="st2" d="m786.63 195.01l7.501 5.508c34.916-35.637 88.353 17.539 57.198 53.194 4.585 5.155 3.281 3.636 6.114 7.042 43.508-45.333-29.268-112.57-70.813-65.744z"/>
				<path class="st2" d="m854.65 192.8c-16.836-15.317-44.494 3.242-58.81 22.359 15.831 12.531 27.67 24.114 40.786 37.905 20.439-17.827 33.414-46.545 18.024-60.266v2e-3z"/>
					<polygon class="st2" points="783.17 288.65 777.16 282.74 822.78 235.11 830.01 242.22"/>
					<path class="st2" d="m770.47 276.55c-3.275-3.012-1.733-1.663-6.28-5.52l42.913-50.084c5.261 4.481 3.922 3.312 7.603 6.685l-44.236 48.919z"/>
					<path class="st3" d="m755.28 99.763c12.189-26.297 57.668-1.166 42.929 22.958-13.966 22.858-54.281 1.531-42.929-22.958z"/>
					<path class="st3" d="m701.56 149.5l8.675 3.373c24.209-42.927 90.677-6.365 68.759 36.83 6.473 4.395 4.794 3.22 7.64 5.31 31.034-54.294-56.732-102.12-85.074-45.513z"/>
					<path class="st3" d="m766.78 129.86c-20.089-10.581-41.879 13.674-51.116 36.714 18.523 8.011 33.381 16.419 48.951 26.169 19.353-28.206 17.131-55.261 2.164-62.884l1e-3 1e-3z"/>
						<polygon class="st3" points="721.94 240.68 714.79 236.57 746.78 178.89 755.54 183.93"/>
						<path class="st3" d="m706.86 232.37c-3.389-1.795-1.843-1.025-7.4-3.669l28.563-59.448c6.684 3.196 4.633 2.165 9.053 4.492l-30.216 58.625z"/>
					<path class="st4" d="m691.46 60.401c3.176 4.553 4.479 10.554 2.77 16.303-7.833 26.346-51.62 14.744-46.717-11.292 1e-3 -14.826 30.206-24.997 43.947-5.011z"/>
					<path class="st4" d="m607.6 126.65c5.69 0.664 3.715 0.401 9.249 1.242 13.299-47.58 85.927-28.661 75.955 18.44 6.555 2.269 4.651 1.567 8.754 3.164 15.518-58.876-79.539-85.349-93.958-22.846z"/>
					<path class="st4" d="m665.86 91.587c-19.802-4.51-36.573 20.39-40.37 48.216 21.935 3.908 33.921 6.967 54.199 13.152 11.411-32.081 2.413-57.942-13.83-61.368h1e-3z"/>
						<polygon class="st4" points="650.6 210.18 642.45 208.02 658.83 144.14 668.63 146.74"/>
						<path class="st4" d="m633.5 205.88c-7.606-1.733-5.454-1.276-8.306-1.805l12.994-64.661c3.236 0.61 0.924 0.111 9.92 2.15l-14.608 64.316z"/>
					<path class="st5" d="m577.93 42.272c20.217 19.413-11.923 48.653-33.802 28.94-22.269-20.284 12.094-49.757 33.802-28.94z"/>
					<path class="st5" d="m510.53 124.38c2.9-0.241 5.287-0.363 9.343-0.593 3.696-48.955 77.228-45.968 78.453 1.777l9.273 1.085c1.209-61.448-95.018-64.694-97.069-2.269z"/>
					<path class="st5" d="m560.12 78.294c-22.336-0.351-30.901 32.299-29.357 55.511 16.052-0.593 37.131-0.289 56.251 1.289 2.623-23.164-4.569-56.412-26.895-56.8h1e-3z"/>
						<polygon class="st5" points="571.22 197.39 562.42 196.96 564.55 131.04 574.75 131.53"/>
						<path class="st5" d="m552.77 196.81c-5.451-0.098-3.547-0.085-8.904-0.058l-0.648-65.951c6.276-0.032 4.092-0.042 10.224 0.058l-0.672 65.951z"/>
				<path class="st1" d="m424.03 54.666c17.958-23.94 57.805-1.053 38.472 23.008-12.382 15.385-37.923 10.438-42.048-6.949 0-1-2.411-8.038 3.576-16.059z"/>
				<path class="st1" d="m408.93 142.92c8.084-2.481 6.551-2.034 8.936-2.669-7.311-49.211 66.192-60.77 76.969-14.536 1.21-0.142-0.385 1e-3 9.312-0.802-11.828-62.831-106.9-41.724-95.217 18.007z"/>
				<path class="st1" d="m447.74 87.22c-17.695 3.353-26.021 29.851-17.118 60.475 15.977-4.264 38.995-8.473 55.065-10.357-3.023-33.121-21.298-53.509-37.948-50.118h1e-3z"/>
					<path class="st1" d="m482.88 201.55c-8.595 1.307-6.833 1.019-8.604 1.361l-11.376-64.965c1.896-0.361 0.363-0.117 10.063-1.6l9.917 65.204z"/>
					<path class="st1" d="m465.01 204.67c-3.428 0.64-1.482 0.228-8.451 1.825l-14.483-64.344c8.059-1.834 5.975-1.392 9.948-2.144l12.986 64.663z"/>
					<path class="st1" d="m314.82 108.94c-6.836-13.533 5.079-30.676 22.988-31.899 21.562-0.881 29.589 22.085 14.881 35.771-11.326 11.141-31.179 9.373-37.869-3.872z"/>
					<path class="st1" d="m320.5 181.92l8.01-4.745c-18.187-44.553 50.164-76.226 71.517-31.492 0.575-0.223 8.318-2.582 8.908-2.763-24.299-57.504-114.93-17.95-88.435 39z"/>
					<path class="st1" d="m345.43 118.62c-14.209 5.988-20.73 31.457-2.779 62.834 15.286-8.243 35.226-16.959 50.997-22.454-8.382-26.057-29.188-48.737-48.219-40.38h1e-3z"/>
						<path class="st1" d="m405.22 222.19c-4.786 1.872-6.001 2.304-7.845 3.162l-25.702-60.74c2.238-1.026 3.662-1.544 9.404-3.799l24.143 61.377z"/>
						<path class="st1" d="m388.98 229.04c-2.07 0.899-0.483 0.159-7.577 3.63l-28.965-59.253c8.359-4.077 6.718-3.307 9.142-4.369l27.4 59.992z"/>
					<path class="st1" d="m220.67 172.44c-8.356-9.456-4.427-24.369 5.704-32.035 26.16-20.331 50.623 13.937 26.018 33.03-11.508 8.674-24.874 6.755-31.722-0.995z"/>
					<path class="st1" d="m244.7 241.64l6.553-6.608c-28.843-38.386 29.561-86.769 61.3-48.276 2.913-1.895 1.151-0.816 7.948-4.844-37.223-49.816-116.64 10.633-75.801 59.728z"/>
					<path class="st1" d="m252.86 174.03c-11.628 9.083-13.185 34.751 13.132 61.545 14.508-13.426 32.373-27.111 43.606-34.403-12.264-19.634-38.419-41.291-56.739-27.141l1e-3 -1e-3z"/>
						<path class="st1" d="m336.48 259.52c-4.596 3.248-2.937 2.02-6.662 4.934l-40.027-52.419c4.565-3.553 2.674-2.144 8.124-6.019l38.565 53.504z"/>
						<polygon class="st1" points="322.7 269.97 316.39 275.34 273.4 225.32 281.11 218.78"/>
					<path class="st1" d="m139.36 232.07c2.734-6.915 10.009-15.117 19.603-16.774 28.013-5.206 31.876 38.532 3.138 45.216-16.595 3.855-29.337-10.925-22.741-28.442z"/>
					<path class="st1" d="m186.48 318.72c0.313-0.542 4.345-7.536 4.689-8.056-38.384-30.66 7.255-90.877 47.101-62.285 3.43-3.772 1.996-2.265 6.427-6.729-48.055-38.129-109.71 39.704-58.217 77.07z"/>
					<path class="st1" d="m177.33 251.29c-13.845 18.15 8.248 44.171 28.281 56.201 10.099-15.88 24.789-34.916 33.478-44.446-16.837-15.797-47.714-30.071-61.76-11.754l1e-3 -1e-3z"/>
						<path class="st1" d="m279.99 312.59c-3.289 3.914-2.175 2.525-5.21 6.515l-52.071-40.478c3.692-4.824 2.338-3.135 6.32-7.904l50.961 41.867z"/>
						<path class="st1" d="m269.26 326.32l-4.801 6.886-54.235-37.53c0.426-0.611 5.399-7.756 5.809-8.301l53.227 38.945z"/>
				<path class="st2" d="m461.67 47.725c23.881 15.072-2.344 49.894-27.711 35.177-26.977-15.509 2.528-51.078 27.711-35.177z"/>
				<path class="st2" d="m411.99 141.98c5.479-1.662 3.564-1.115 8.971-2.553-6.713-48.049 66.363-61.601 77.068-14.009l9.315-0.772c-11.121-61.265-106.84-43.895-95.354 17.334z"/>
				<path class="st2" d="m451.19 86.566c-22.199 4.193-23.889 37.938-17.559 60.324 13.549-3.468 34.156-7.451 55.16-9.917-2.808-33.211-21.084-53.759-37.602-50.407h1e-3z"/>
					<polygon class="st2" points="485.54 201.14 476.92 202.46 466 137.41 476.07 135.87"/>
					<path class="st2" d="m467.64 204.18c-6.343 1.189-4.268 0.757-8.485 1.726l-14.018-64.447c4.719-1.074 2.582-0.633 9.974-2.032l12.529 64.753z"/>
					<path class="st3" d="m318.17 107.3c-6.996-14.135 6.076-30.921 23.23-31.688 21.735-0.785 29.241 22.383 14.6 35.886-12.121 11.379-31.498 8.597-37.83-4.198z"/>
					<path class="st3" d="m323.24 180.29c5.999-3.558 4.26-2.577 8.076-4.631-18.275-45.838 51.249-74.895 71.753-30.945l8.917-2.735c-24.284-58.688-114.5-18.27-88.746 38.311z"/>
					<path class="st3" d="m348.68 117.2c-20.357 8.952-15.452 41.133-3.299 62.788 10.304-5.559 29.811-14.544 51.205-22.006-9.753-31.14-31.533-47.828-47.907-40.781l1e-3 -1e-3z"/>
						<polygon class="st3" points="407.65 221.24 399.76 224.32 374.55 163.38 383.99 159.67"/>
						<path class="st3" d="m391.37 228c-4.638 2.018-3.008 1.261-7.634 3.532l-28.482-59.487c5.581-2.721 3.63-1.815 9.197-4.255l26.919 60.21z"/>
					<path class="st4" d="m238.33 133.29c21.215-6.244 34.011 14.504 23.048 31.141-5.621 8.674-14.733 12.632-22.864 12.363-26.104-0.788-25.385-35.892-0.184-43.504z"/>
					<path class="st4" d="m236.88 205.32c-1.57 12.146 2.141 24.409 10.064 34.063 6.383-6.437 5.324-5.378 6.601-6.558-29.271-39.554 31.081-85.577 61.689-47.786l8.01-4.747c-25.996-35.396-81.362-16.637-86.364 25.028z"/>
					<path class="st4" d="m255.68 171.84c-15.069 11.712-8.688 39.602 12.586 61.634 10.933-10.126 28.329-23.85 43.932-33.988-16.713-27.264-42.004-38.927-56.519-27.645l1e-3 -1e-3z"/>
						<path class="st4" d="m338.56 258.04c-6.899 4.899-5.249 3.684-6.736 4.841l-39.577-52.759c1.608-1.242 0.158-0.187 8.205-5.912l38.108 53.83z"/>
						<path class="st4" d="m324.72 268.41c-2.588 1.996-1.22 0.88-6.38 5.279l-42.56-50.384c6.183-5.249 4.698-4.036 7.793-6.44l41.147 51.545z"/>
					<path class="st5" d="m161.44 212.32c28.069-5.093 31.518 38.809 2.729 45.231-30.504 6.956-32.613-39.833-2.729-45.231z"/>
					<path class="st5" d="m188.08 315.95c3.464-5.987 2.183-3.869 4.804-7.984-38.689-31.404 8.599-90.391 47.531-61.952 0.863-0.949-0.188 0.134 6.527-6.634-47.39-38.259-110.3 38.635-58.862 76.57z"/>
					<path class="st5" d="m179.49 248.46c-13.881 18.171 7.869 44.23 27.788 56.409 8.448-13.295 23.375-32.563 33.897-44.115-24.744-23.613-51.712-25.801-61.686-12.293l1e-3 -1e-3z"/>
						<path class="st5" d="m281.64 310.62c-5.307 6.343-4.262 5.06-5.299 6.432l-51.735-40.907c1.143-1.499 0.221-0.383 6.425-7.818l50.609 42.293z"/>
						<path class="st5" d="m270.83 324.28c-2.268 2.948-1.121 1.37-4.893 6.805l-53.928-37.97c4.472-6.412 3.164-4.618 5.917-8.22l52.904 39.385z"/>
				<path class="st1" d="m88.016 322.29c18.169-18.31 43.151 1.712 33.38 24.696-2.455 5.787-6.899 10.118-11.841 12.658-22.003 10.98-39.991-17.716-21.539-37.354z"/>
				<path class="st1" d="m146.63 410.5c0.278-1.017 0.33-1.132 2.918-8.879-43.914-21.126-14.279-89.346 30.812-71.992 2.321-4.427 1.304-2.594 4.523-8.151-56.007-24.573-96.375 64.183-38.253 89.022z"/>
				<path class="st1" d="m122.09 347.28c-8.703 20.751 18.454 40.781 40.657 47.864 6.437-17.037 13.579-35.311 22.073-51.478-27.693-15.199-55.931-13.088-62.731 3.616l1e-3 -2e-3z"/>
					<path class="st1" d="m236.62 381.74c-2.318 4.877-2.85 5.909-3.62 7.816l-60.319-26.673c0.942-2.304 1.686-3.784 4.266-9.233l59.673 28.09z"/>
					<path class="st1" d="m229.33 398.23c-1.812 4.239-1.048 2.307-3.214 8.083l-61.519-23.775c2.503-6.628 1.644-4.47 3.766-9.464l60.967 25.156z"/>
					<path class="st1" d="m48.605 439.83c3.193-14.821 15.482-21.341 25.874-18.717 26.168 6.608 17.184 50.57-9.577 46.356-7.076 0-19.791-10.481-16.297-27.639z"/>
					<path class="st1" d="m127.31 505.53c0.718-8 0.509-5.962 0.941-9.285-47.158-11.667-32.267-84.218 15.753-76.77l2.62-8.977c-61.042-12.278-79.844 82.898-19.314 95.032z"/>
					<path class="st1" d="m90.525 448.48c-4.604 21.818 25.535 36.238 49.458 38.795 2.557-19.777 7.163-38.665 11.26-54.96-22.407-6.797-56.096-5.646-60.718 16.167v-2e-3z"/>
						<path class="st1" d="m209.64 459.3c-1.343 5.314-0.918 3.482-1.976 8.564l-64.418-14.148c1.29-6.114 0.802-3.988 2.294-9.941l64.1 15.525z"/>
						<path class="st1" d="m205.71 477.07c-0.297 1.379 0.026-0.36-1.476 8.513l-65.028-11.011c1.728-10.156 1.434-8.537 1.75-10.025l64.754 12.523z"/>
					<path class="st1" d="m39.239 545.58c3.222-8.641 10.613-14.699 19.572-14.404 18.134 0.605 27.72 24.919 15.108 39.787-15.897 19.344-43.774-0.783-34.68-25.383z"/>
					<path class="st1" d="m128.45 602.47l-0.929-9.3c-49.052-1.571-49.053-75.712-1.045-78.341l0.837-9.297c-62.146 0.563-61.026 97.773 1.137 96.938z"/>
					<path class="st1" d="m80.405 554.6c0.557 20.494 29.322 30.248 56.636 27.306-1.311-20.756-1.755-34.197-0.691-56.06-33.4-2.768-56.348 11.908-55.945 28.755v-1e-3z"/>
						<polygon class="st1" points="199.09 539.63 198.98 548.31 133.02 548.37 133.15 538.19"/>
						<path class="st1" d="m199.14 557.77c0.219 8.824 0.142 6.785 0.261 8.715l-65.879 3.143c-0.121-2.034-0.059-0.249-0.315-10.186l65.933-1.672z"/>
					<path class="st1" d="m50.336 659.2c1.356-8.936 7.71-16.292 16.43-17.788 17.754-3.046 32.053 18.536 22.513 35.472-12.128 21.591-42.859 7.823-38.943-17.684z"/>
					<path class="st1" d="m148.62 697.57c-2.442-7.927-1.853-5.948-2.686-8.979-47.483 7.245-63.22-64.214-16.255-76.848-0.98-7.192-1.167-8.417-1.227-9.269-59.482 13.134-41.224 106.96 20.168 95.096z"/>
					<path class="st1" d="m92.477 659.79c4.227 20.278 35.514 23.573 60.78 15.915-6.724-24.446-10.282-46.524-11.767-55.16-23.167 2.85-53.507 17.545-49.013 39.246v-1e-3z"/>
						<path class="st1" d="m205.8 621.54c0.689 4.064 0.321 2.132 1.705 8.776l-64.647 13.063c-1.533-7.41-1.123-5.229-1.948-10.043l64.89-11.796z"/>
						<polygon class="st1" points="209.47 639.85 211.6 648.62 147.52 664.23 145.11 654.27"/>
				<path class="st2" d="m89.644 318.83c16.313-16.379 39.562-1.949 34.538 20.519-1.664 7.549-6.622 13.673-13.367 16.976-22.418 11.091-39.681-18.673-21.171-37.495z"/>
				<path class="st2" d="m147.6 407.45l2.962-8.864c-43.515-21.282-14.027-89.611 31.281-71.785 0.542-1.034-0.238 0.339 4.64-8.085-56.386-25.258-96.265 63.835-38.883 88.734z"/>
				<path class="st2" d="m123.47 344.05c-7.497 17.629 12.045 38.917 40.385 48.173 2.004-5.298 9.904-27.471 22.418-51.309-23.918-13.364-54.579-15.756-62.803 3.137v-1e-3z"/>
					<polygon class="st2" points="237.75 379.34 234.06 387.11 173.94 360.01 178.29 350.82"/>
					<path class="st2" d="m230.38 395.77c-3.108 7.286-2.285 5.271-3.315 8.021l-61.355-24.196c1.166-3.089 0.269-0.905 3.883-9.413l60.787 25.588z"/>
					<path class="st3" d="m53.022 427.05c14.13-20.845 42.675-6.488 37.49 17.831-1.313 6.205-5.019 11.49-9.193 14.723-19.933 15.415-42.429-10.385-28.297-32.554z"/>
					<path class="st3" d="m127.6 502.35c0.398-4.437 0.184-2.473 1.067-9.271-47.438-12.163-31.44-84.425 16.238-76.675 2.349-8.049 1.852-6.438 2.693-8.953-59.311-12.394-81.314 82.141-19.998 94.899z"/>
					<path class="st3" d="m91.253 445.04c-4.555 22.069 25.847 36.484 49.131 39.141 1.401-14.282 10.074-49.432 11.673-54.896-30.205-9.366-57.375-1.652-60.804 15.756v-1e-3z"/>
						<path class="st3" d="m210.32 456.63c-1.99 7.861-1.618 6.272-2.107 8.624l-64.316-14.608c0.563-2.67 0.13-0.851 2.417-9.929l64.006 15.913z"/>
						<path class="st3" d="m206.27 474.45c-0.923 4.313-0.548 2.28-1.59 8.495l-64.947-11.478c1.223-7.197 0.765-4.765 1.874-10.002l64.663 12.985z"/>
					<path class="st4" d="m37.528 551.36c0.082-8.766 4.026-16.128 9.516-20.173 20.545-14.831 43.884 16.246 26.776 36.216-13.391 15.443-35.873 5.633-36.292-16.043z"/>
					<path class="st4" d="m128.13 599.28l-0.93-9.3c-48.873-1.89-48.593-76.055-0.439-78.34l0.836-9.297c-61.647 0.12-62.436 97.271 0.533 96.937z"/>
					<path class="st4" d="m80.331 551.09c0.422 22.601 33.365 30.027 56.514 27.692-1.284-20.239-1.449-34.185-0.337-56.055-30.668-2.762-55.976 9.616-56.177 28.365v-2e-3z"/>
						<polygon class="st4" points="199.11 536.95 199.02 545.63 133.06 545.23 133.19 535.04"/>
						<polygon class="st4" points="199.07 555.08 199.29 563.79 133.39 566.48 133.13 556.3"/>
					<path class="st5" d="m75.58 683.49c-27.676 6.843-37.322-41.034-9.425-45.642 26.772-4.423 35.78 39.126 9.425 45.642z"/>
					<path class="st5" d="m147.67 694.5c-1.341-4.352-0.774-2.392-2.59-9.004-48.438 7.117-62.227-64.817-15.837-76.927-0.556-4.076-0.723-5.06-1.113-9.281-60.577 13.083-40.868 106.54 19.54 95.212z"/>
					<path class="st5" d="m91.773 656.39c4.488 21.715 38.488 22.861 60.648 16.278-2.63-8.882-9.225-39.211-11.396-55.223-23.758 2.771-53.682 17.512-49.252 38.947v-2e-3z"/>
						<path class="st5" d="m205.34 618.82c1.214 7.138 0.817 5.01 1.604 8.777l-64.724 12.678c-0.869-4.197-0.444-1.906-1.842-10.06l64.962-11.395z"/>
						<path class="st5" d="m208.92 637.14c0.7 3.426 0.218 1.313 2.026 8.773l-64.169 15.241c-2.018-8.365-1.49-6.052-2.301-9.981l64.444-14.033z"/>
				<path class="st1" d="m95.962 791.72c-5.086-2.421-9.462-6.962-11.875-12.953-9.279-22.394 17.454-41.59 34.482-22.866 16.569 18.223-1.742 45.604-22.607 35.819z"/>
				<path class="st1" d="m185.13 791.45l-3.962-8.521c-46.362 14.31-71.273-53.176-28.815-73.345-0.33-0.913-0.521-1.582-2.789-8.95-55.461 23.628-22.549 111.16 35.566 90.816z"/>
				<path class="st1" d="m123.92 763.09c7.551 18.72 38.882 17.316 62.518 5.961-4.682-10.768-12.79-29.426-20.773-52.882-31.24 9.619-47.987 31.447-41.744 46.922l-1e-3 -1e-3z"/>
					<polygon class="st1" points="229.23 706.25 232.46 714.95 170.89 738.59 167.3 728.95"/>
					<polygon class="st1" points="236.2 724.36 239.7 733.02 178.89 758.55 175.02 749"/>
					<path class="st1" d="m159.52 886.39c-24.619 14.086-46.072-26.637-21.358-39.308 24.104-12.358 45.777 25.307 21.358 39.308z"/>
					<path class="st1" d="m231.72 877.44l-4.891-8.048c-44.692 19.439-76.633-43.882-37.658-69.454-2.077-4.199-1.142-2.237-4.046-8.484-50.266 30.444-8.986 112.36 46.595 85.986z"/>
					<path class="st1" d="m167.77 856.49c8.806 15.953 37.699 14.217 62.74-1.53-8.931-15.39-18.692-32.872-27.279-50.237-29.57 13.615-43.492 37.534-35.46 51.769l-1e-3 -2e-3z"/>
						<polygon class="st1" points="265.08 786.81 269.52 795.28 211.37 826.41 206.57 817.24"/>
						<polygon class="st1" points="274.53 804.44 279.18 812.86 221.78 845.34 216.77 836.28"/>
					<path class="st1" d="m185.31 967.6c-6.764-10.224-4.652-23.727 5.304-30.157 15.858-10.155 36.264 4.522 33.175 22.857-3.163 18.894-27.276 23.817-38.479 7.3z"/>
					<path class="st1" d="m286.27 958.84c-3.347-4.566-2.165-2.928-5.523-7.646-42.36 22.777-80.179-36.224-44.121-65.725-0.347-0.527-4.575-7.499-4.904-8.041-47.31 36.069 1.311 112.24 54.548 81.412z"/>
					<path class="st1" d="m220.84 943.74c11.978 17.743 44.052 6.59 62.309-7.234-9.103-12.788-21.46-31.088-31.995-47.692-18.939 11.166-42.33 36.71-30.313 54.928l-1e-3 -2e-3z"/>
						<polygon class="st1" points="310.97 864.99 316.38 873.16 261.45 909.67 255.72 901"/>
						<polygon class="st1" points="322.31 882.02 327.88 890.14 273.62 927.62 267.73 919.05"/>
					<path class="st1" d="m261.19 1060.4c-5.455-0.735-10.697-3.645-14.466-8.441-14.74-18.807 6.214-43.193 26.656-31.473 20.523 11.634 10.697 42.939-12.19 39.914z"/>
					<path class="st1" d="m346.66 1036.2l-6.028-7.269c-41.139 25.701-81.568-30.936-48.769-62.493l-5.594-7.597c-44.246 39.905 10.15 110.88 60.391 77.359z"/>
					<path class="st1" d="m280.45 1025.6c13.109 16.752 44.458 3.331 61.607-11.556-19.293-23.912-25.078-31.708-35.491-45.401-17.835 12.477-39.467 40.113-26.115 56.959l-1e-3 -2e-3z"/>
						<path class="st1" d="m364.52 940.44c5.043 6.636 3.607 4.769 6.062 7.9l-52.117 40.419c-2.505-3.195-1.047-1.298-6.343-8.264l52.398-40.055z"/>
						<path class="st1" d="m377.27 956.88c3.643 4.649 4.639 5.943 6.188 7.84l-51.551 41.138c-1.623-1.989-2.704-3.391-6.459-8.181l51.822-40.797z"/>
				<path class="st2" d="m110.9 788.88c-26.041 10.998-43.044-33.165-16.488-42.522 25.61-9.038 41.802 31.831 16.488 42.522z"/>
				<path class="st2" d="m183.77 788.53l-3.963-8.521c-45.774 13.989-71.726-53.253-28.434-73.485l-2.758-8.959c-55.27 23.292-23.559 111.21 35.155 90.965z"/>
				<path class="st2" d="m122.64 759.92c6.664 16.45 34.367 19.604 62.531 6.224-8.652-19.894-14.707-35.864-20.527-52.964-21.511 6.506-49.765 25.792-42.004 46.741v-1e-3z"/>
					<polygon class="st2" points="228.22 703.57 231.46 712.26 169.78 735.62 166.19 725.97"/>
					<polygon class="st2" points="235.12 721.69 238.62 730.34 177.69 755.6 173.83 746.05"/>
					<path class="st3" d="m128.46 873.84c-14.187-26.793 23.505-45.481 37.015-19.945 13.828 25.059-22.361 46.528-37.015 19.945z"/>
					<path class="st3" d="m230.05 874.68l-4.881-8.054c-44.377 19.103-76.652-44.051-37.421-69.578-0.273-0.537-3.721-7.97-3.975-8.516-50.694 30.426-9.531 112.42 46.277 86.148z"/>
					<path class="st3" d="m166.14 853.54c10.597 19.164 43.577 10.652 62.771-1.332-8.878-15.295-17.642-31.293-27.088-50.328-20.186 9.2-45.97 32.166-35.683 51.661v-1e-3z"/>
						<polygon class="st3" points="263.71 784.2 268.15 792.67 209.89 823.58 205.09 814.42"/>
						<polygon class="st3" points="273.1 801.84 277.74 810.26 220.23 842.54 215.23 833.48"/>
					<path class="st4" d="m179.81 948.11c4.908-27.519 46.852-18.559 42.075 9.419-4.802 28.467-47.087 18.867-42.075-9.419z"/>
					<path class="st4" d="m284.36 956.24c-3.359-4.69-2.207-3.077-5.48-7.676-42.442 22.689-80.296-36.325-43.937-65.842l-4.891-8.049c-47.453 36.005 1.053 112.3 54.308 81.567z"/>
					<path class="st4" d="m218.99 940.94c9.233 14.162 37.361 11.74 62.299-7.049-7.359-10.337-19.239-27.907-31.849-47.781-25.888 15.163-40.25 40.003-30.449 54.83h-1e-3z"/>
						<polygon class="st4" points="309.3 862.46 314.71 870.64 259.68 906.99 253.95 898.32"/>
						<polygon class="st4" points="320.59 879.52 326.16 887.63 271.8 924.98 265.92 916.4"/>
					<path class="st5" d="m259.08 1057.8c-28.195-3.981-23.752-46.872 4.538-42.627 28.47 4.252 22.6 46.487-4.538 42.627z"/>
					<path class="st5" d="m344.6 1033.7l-6.028-7.269c-40.493 25.171-82.218-30.45-48.62-62.605l-5.594-7.597c-44.172 39.654 9.923 110.9 60.242 77.471z"/>
					<path class="st5" d="m278.4 1023c11.144 14.136 39.524 7.686 61.641-11.439-11.675-14.469-21.63-27.102-35.402-45.464-25.119 17.488-36.803 43.409-26.238 56.905l-1e-3 -2e-3z"/>
						<polygon class="st5" points="362.66 938 368.68 945.92 316.48 986.23 310.17 977.94"/>
						<polygon class="st5" points="375.37 954.46 381.52 962.31 329.89 1003.3 323.46 995.14"/>
				<path class="st1" d="m344.92 1136.2c-20.891 18.744-49.704-14.37-28.57-32.491 21.088-18.047 49.068 14.098 28.57 32.491z"/>
				<path class="st1" d="m413.53 1112.5l-6.374-6.978c-38.5 26.903-84.167-24.872-52.378-59.613-1.515-1.76-2.514-2.983-6.052-7.25-41.628 42.784 17.022 109.38 64.804 73.841z"/>
				<path class="st1" d="m346.92 1105.7c14 16.11 44.977 0.349 60.83-14.984-9.26-10.354-20.902-23.213-38.104-43.425-16.96 13.498-36.869 42.161-22.726 58.409z"/>
					<polygon class="st1" points="425.79 1015.6 432.42 1023.2 382.76 1066.6 375.89 1058.8"/>
					<polygon class="st1" points="439.64 1031.5 446.38 1039 397.18 1083 390.22 1075.2"/>
					<path class="st1" d="m383.9 1209.1c-19.87-20.861 10.973-49.445 30.34-29.11 19.575 20.358-10.525 49.719-30.34 29.11z"/>
					<path class="st1" d="m481.58 1183.5l-6.65-6.724c-37.414 28.427-84.933-21.22-54.971-57.313-3.959-4.242-2.586-2.761-6.423-6.935-39.149 44.425 21.453 108.52 68.044 70.972z"/>
					<path class="st1" d="m414.78 1179.4c14.736 15.391 44.95-1.642 60.13-17.575-12.912-13.259-23.081-23.661-40.052-41.782-16.303 14.271-34.845 43.853-20.077 59.359l-1e-3 -2e-3z"/>
						<polygon class="st1" points="489.55 1086 496.57 1093.3 448.87 1138.9 441.66 1131.3"/>
						<polygon class="st1" points="504.22 1101.3 511.32 1108.6 464.02 1154.6 456.73 1147.1"/>
					<path class="st1" d="m455.42 1281c-20.468-19.998 9.273-49.725 29.307-30.15 20.215 19.687-8.991 49.935-29.307 30.15z"/>
					<path class="st1" d="m552.1 1252.1l-6.87-6.506c-36.982 29.993-85.119-18.708-56.971-55.391l-6.689-6.687c-37.047 45.519 24.311 108.27 70.53 68.584z"/>
					<path class="st1" d="m485.25 1250.3c14.975 14.664 44.495-2.81 59.482-19.607-16.541-15.946-25.678-24.673-41.544-40.415-15.715 14.824-33.206 45.106-17.938 60.022z"/>
						<polygon class="st1" points="556.62 1154.2 563.95 1161.3 517.89 1208.5 510.4 1201.2"/>
						<polygon class="st1" points="571.92 1169.1 579.32 1176.2 533.59 1223.7 526.04 1216.5"/>
					<path class="st1" d="m528.76 1350.2c-20.858-19.165 7.766-49.965 28.453-30.958 20.769 19.217-7.819 50.048-28.453 30.958z"/>
					<path class="st1" d="m624.56 1318.7l-7.045-6.323c-35.585 30.42-85.867-15.805-58.525-53.799l-6.884-6.492c-35.768 46.885 28.104 106.65 72.454 66.614z"/>
					<path class="st1" d="m557.72 1318.7c15.361 14.209 44.4-4.068 58.921-21.228-27.2-24.717-35.814-32.829-42.715-39.271-15.088 15.11-31.908 45.998-16.205 60.5l-1e-3 -1e-3z"/>
						<polygon class="st1" points="626.29 1220.6 633.87 1227.6 589.17 1276.1 581.46 1269"/>
						<polygon class="st1" points="642.11 1235.2 649.72 1242.1 605.29 1290.8 597.55 1283.8"/>
				<path class="st2" d="m312.55 1131.4c-7.984-9.15-7.214-22.639 1.631-30.213 11.288-9.669 29.334-4.614 34.246 9.886 7.558 21.741-20.123 38.369-35.877 20.327z"/>
				<path class="st2" d="m411.35 1110.1l-6.374-6.978c-39.059 27.199-83.904-25.277-52.284-59.693l-6.028-7.269c-40.318 41.328 15.713 110.25 64.686 73.94z"/>
				<path class="st2" d="m344.74 1103.2c13.962 16.151 45.003 0.396 60.856-14.888-24.869-27.844-29.688-33.665-38.039-43.477-16.98 13.466-36.939 42.116-22.817 58.365z"/>
					<polygon class="st2" points="423.75 1013.3 430.38 1020.9 380.64 1064.2 373.78 1056.3"/>
					<path class="st2" d="m437.59 1029.1c1.593 1.837 2.634 2.987 6.716 7.556l-49.268 43.847c-4.163-4.66-5.275-5.889-6.939-7.808l49.491-43.595z"/>
					<path class="st3" d="m381.59 1206.7c-8.276-8.688-8.12-22.171 0.369-30.138 13.628-12.772 36.186-2.521 36.047 16.213-0.143 19.203-23.439 27.649-36.416 13.925z"/>
					<path class="st3" d="m479.3 1181.2l-6.65-6.724c-37.518 28.425-84.863-21.385-54.902-57.377-1.589-1.679-2.557-2.754-6.397-6.958-39.187 44.346 21.247 108.61 67.949 71.059z"/>
					<path class="st3" d="m412.51 1177.1c14.598 15.461 44.971-1.604 60.146-17.493-9.787-10.081-21.44-21.95-39.993-41.834-16.356 14.279-34.892 43.813-20.153 59.327z"/>
						<polygon class="st3" points="487.38 1083.7 494.4 1091 446.64 1136.5 439.43 1129"/>
						<polygon class="st3" points="502.03 1099.1 509.13 1106.4 461.76 1152.3 454.48 1144.8"/>
					<path class="st4" d="m453.04 1278.6c-20.416-19.92 9.224-49.746 29.339-30.12 20.202 19.838-9.233 49.861-29.339 30.12z"/>
					<path class="st4" d="m549.75 1249.9l-6.87-6.506c-37.033 29.986-85.077-18.829-56.916-55.446l-6.668-6.707c-37.356 45.797 25.229 107.42 70.454 68.659z"/>
					<path class="st4" d="m482.9 1248c15.12 14.866 44.869-3.177 59.505-19.549-8.657-8.324-21.592-20.666-41.506-40.452-15.732 14.809-33.247 45.062-17.998 60.002l-1e-3 -1e-3z"/>
						<polygon class="st4" points="554.36 1152 561.69 1159.1 515.58 1206.3 508.09 1199"/>
						<polygon class="st4" points="569.66 1166.9 577.04 1174 531.26 1221.5 523.72 1214.2"/>
					<path class="st5" d="m526.32 1348c-20.834-19.101 7.732-49.954 28.478-30.934 20.646 19.088-7.712 50.132-28.478 30.934z"/>
					<path class="st5" d="m622.15 1316.5l-7.045-6.323c-36.109 30.816-85.438-16.464-58.479-53.847l-6.87-6.507c-35.857 46.921 28.167 106.54 72.394 66.677z"/>
					<path class="st5" d="m555.31 1316.5c12.561 11.588 39.519 1.735 58.94-21.182-24.594-22.349-35.803-32.878-42.684-39.301-15.178 15.171-31.926 46.073-16.255 60.484l-1e-3 -1e-3z"/>
						<polygon class="st5" points="623.97 1218.4 631.53 1225.4 586.79 1273.9 579.09 1266.8"/>
						<polygon class="st5" points="639.77 1233 647.37 1240 602.9 1288.7 595.17 1281.6"/>
				<path class="st1" d="m605.96 1419.5c-21.175-18.505 6.547-50.118 27.729-31.607 21.068 18.535-6.591 50.203-27.729 31.607z"/>
				<path class="st1" d="m700.98 1385.8l-7.179-6.175c-35.44 31.602-85.848-14.216-59.778-52.449l-7.045-6.323c-34.47 47.708 29.958 106.39 74.002 64.947z"/>
				<path class="st1" d="m634.18 1387.3c12.644 11.133 39.311 1.048 58.422-22.554-9.204-7.948-23.543-20.464-43.656-38.303-14.754 15.521-30.745 46.866-14.765 60.858l-1e-3 -1e-3z"/>
					<polygon class="st1" points="700.42 1287.6 708.18 1294.4 664.63 1343.9 656.76 1337"/>
					<polygon class="st1" points="716.64 1301.8 724.43 1308.6 681.1 1358.4 673.2 1351.5"/>
					<path class="st1" d="m681.76 1484.8c-21.457-18.166 5.801-50.181 27.16-32.097 21.345 18.002-5.638 50.249-27.16 32.097z"/>
					<path class="st1" d="m776.14 1449.5l-7.266-6.076c-34.231 31.532-86.6-11.881-60.72-51.391l-7.183-6.171c-33.619 48.548 32.723 104.94 75.169 63.638z"/>
					<path class="st1" d="m709.41 1452.1c12.865 10.858 39.318 0.332 58.016-23.569-26.685-22.472-17.213-14.456-44.369-37.541-20.502 22.41-26.473 50.235-13.646 61.11h-1e-3z"/>
						<polygon class="st1" points="773.82 1351.2 781.72 1357.9 739.08 1408.2 731.08 1401.4"/>
						<polygon class="st1" points="790.35 1365.2 798.29 1371.9 755.81 1422.3 747.79 1415.6"/>
					<path class="st1" d="m758.36 1548.6c-21.701-17.88 5.207-50.189 26.707-32.475 21.625 17.859-5.179 50.254-26.707 32.475z"/>
					<path class="st1" d="m852.23 1512l-7.352-5.975c-33.961 32.126-86.46-11.007-61.45-50.548l-7.284-6.055c-32.657 48.793 33.309 105.23 76.086 62.578z"/>
					<path class="st1" d="m785.55 1515.6c12.998 10.706 39.36-0.293 57.682-24.356-27.609-22.625-17.969-14.697-44.914-36.943-20.118 22.661-25.763 50.62-12.768 61.299z"/>
						<polygon class="st1" points="848.49 1413.7 856.53 1420.3 814.6 1471.2 806.49 1464.6"/>
						<polygon class="st1" points="865.26 1427.5 873.32 1434.1 831.53 1485.2 823.41 1478.5"/>
					<path class="st1" d="m871.49 1632.3c-19.408-2.067-42.473-27.378-43.599-34.08-2.242-14.122 10.626-29.352 28.711-21.721 28.919 12.153 40.778 58.692 14.888 55.801z"/>
					<path class="st1" d="m924.75 1570.4c-0.064-0.051-6.7-5.355-6.762-5.405-6.432 35.387-42.316 16.959-58.448-5.182-5.392-7.616-9.925-25.606 0.041-41.816l-7.353-5.975c-11.87 18.223-10.853 43.301 5.265 60.155 20.578 21.565 63.589 45.258 67.257-1.777z"/>
					<path class="st1" d="m867.35 1582c17.094 13.706 37.686 9.455 45.259-34.715-21.833-17.516-13.735-11-38.153-30.703-16.845 19.43-29.343 47.61-7.104 65.419l-2e-3 -1e-3z"/>
						<path class="st1" d="m924.19 1475.5c0.133 0.107 1.794 1.458 1.935 1.545 0.022 1e-3 0.022 0.017 0.024 0.037l-36.333 55.431-7.047-5.69 41.421-51.323z"/>
						<polygon class="st1" points="926.14 1477.1 903.8 1543.7 897.1 1538.3"/>
				<path class="st2" d="m603.48 1417.3c-21.144-18.466 6.52-50.129 27.75-31.589 21.01 18.447-6.511 50.236-27.75 31.589z"/>
				<path class="st2" d="m698.52 1383.7l-7.168-6.187c-35.444 31.616-85.757-14.41-59.741-52.489l-7.045-6.323c-35.095 48.494 30.732 105.64 73.954 64.999z"/>
				<path class="st2" d="m631.72 1385.1c12.651 11.134 39.313 1.076 58.437-22.518-21.396-18.566-37.684-33.053-43.632-38.328-14.795 15.541-30.771 46.9-14.805 60.847v-1e-3z"/>
					<polygon class="st2" points="698.03 1285.5 705.78 1292.3 662.2 1341.8 654.34 1334.9"/>
					<polygon class="st2" points="714.24 1299.7 722.02 1306.6 678.65 1356.2 670.77 1349.3"/>
					<path class="st3" d="m679.25 1482.6c-21.492-18.286 5.933-50.159 27.177-32.083 21.344 18.002-5.655 50.235-27.177 32.083z"/>
					<path class="st3" d="m773.65 1447.4l-7.266-6.076c-34.495 31.744-86.216-12.419-60.691-51.424l-7.183-6.171c-33.647 48.529 32.636 105 75.14 63.671z"/>
					<path class="st3" d="m706.91 1450c12.866 10.846 39.309 0.362 58.029-23.541-27.219-22.943-17.811-14.976-44.344-37.568-20.522 22.406-26.495 50.202-13.683 61.109h-2e-3z"/>
						<polygon class="st3" points="771.38 1349.1 779.28 1355.8 736.61 1406.1 728.62 1399.3"/>
						<polygon class="st3" points="787.9 1363.1 795.84 1369.8 753.34 1420.2 745.31 1413.5"/>
					<path class="st4" d="m785.55 1543.7c-17.639 21.561-50.428-5.486-32.69-26.902 17.709-21.371 50.261 5.42 32.69 26.902z"/>
					<path class="st4" d="m849.71 1510l-7.352-5.975c-33.963 32.093-86.475-11.01-61.428-50.573l-7.276-6.064c-32.682 48.78 33.255 105.26 76.056 62.612z"/>
					<path class="st4" d="m783.03 1513.5c12.987 10.725 39.367-0.285 57.692-24.333-26.973-22.121-17.415-14.251-44.899-36.96-20.134 22.659-25.783 50.622-12.792 61.294l-1e-3 -1e-3z"/>
						<polygon class="st4" points="846.01 1411.7 854.05 1418.3 812.1 1469.2 803.99 1462.5"/>
						<polygon class="st4" points="862.78 1425.5 870.83 1432.1 829.02 1483.1 820.91 1476.4"/>
					<path class="st5" d="m866.62 1628.4c-11.871-1.402-27.558-12.231-37.277-24.088-12.821-15.739 5.304-38.506 23.473-30.853 29.037 12.172 40.214 58.19 13.804 54.941z"/>
					<path class="st5" d="m922.43 1568.6l-6.762-5.405c-9.93 46.263-86.26-2.249-58.609-47.193l-7.353-5.975c-12.914 19.81-9.173 44.901 4.124 59.258 20.691 21.695 63.76 45.206 68.6-0.685z"/>
					<path class="st5" d="m863.63 1579c17.283 13.856 38.247 9.586 46.994-33.319-21.763-17.469-13.689-10.969-38.688-31.151-9.5 10.951-32.823 44.822-8.304 64.472l-2e-3 -2e-3z"/>
						<path class="st5" d="m921.68 1473.5c0.536 0.433 3.905 3.155 4.422 3.572l0.011-2e-3 0.017 2e-3c0.013 6e-3 0.014 0.021 0.014 0.035l-38.399 53.766-7.504-6.062 41.439-51.311z"/>
						<polygon class="st5" points="926.14 1477.1 901.73 1542.1 895.03 1536.7"/>
				<path class="st1" d="m1021.6 1604.1c-8.495 11.438-26.621 24.646-40.318 25.862-23.626 2.213-15.763-33.02 4.83-48.55 27.363-20.499 45.266 9.268 35.488 22.688z"/>
				<path class="st1" d="m1001.7 1563.5c9.611-15.845 9.611-35.722-0.164-51.511l-7.496 5.81c26.25 45.077-51.362 92.421-59.982 45.597l-6.942 5.198c4.011 53.054 62.339 15.093 74.584-5.094z"/>
				<path class="st1" d="m985.7 1580.8c21.103-15.915 9.638-45.152-6.493-64.719-25.529 19.52-17.215 13.199-39.556 30.082 7.994 46.122 30.659 46.243 46.05 34.636l-1e-3 1e-3z"/>
					<polygon class="st1" points="926.14 1477.1 955.53 1537.6 948.67 1542.8"/>
					<path class="st1" d="m926.14 1477.1s0.058-0.056 0.117-0.081c0.192-0.147 4.088-3.132 4.31-3.302l40.071 52.385-7.646 5.856c-0.05-0.074-36.852-54.858-36.852-54.858z"/>
					<path class="st1" d="m1094.8 1550.4c-22.009 17.52-48.173-15.393-26.099-32.966 21.934-17.42 48.298 15.336 26.099 32.966z"/>
					<path class="st1" d="m1078.9 1450.8l-7.389 5.943c24.44 39.941-29.213 82.277-62.444 49.454l-7.496 5.81c41.024 42.758 109.57-11.488 77.329-61.207z"/>
					<path class="st1" d="m1068.3 1516.8c15.861-12.597 3.986-43.373-11.643-61.558-10.222 8.205-21.273 17.022-45.602 36.108 17.98 24.676 44.153 35.902 57.245 25.45z"/>
						<polygon class="st1" points="982.07 1433.7 990.22 1427.3 1031.1 1479.1 1022.8 1485.6"/>
						<polygon class="st1" points="999.03 1420.3 1007.1 1413.9 1048.3 1465.5 1040 1472"/>
					<path class="st1" d="m1173 1487.1c-21.906 18.087-48.439-14.534-26.824-32.379 21.865-17.979 48.569 14.497 26.824 32.379z"/>
					<path class="st1" d="m1154.8 1387.9l-7.227 6.136c25.344 39.412-27.294 83.094-61.331 50.804l-7.353 5.987c41.915 41.91 109.35-13.933 75.911-62.927z"/>
					<path class="st1" d="m1145.7 1454.2c16.391-13.462 1.633-45-13.021-61.283-7.955 6.66-23.239 19.531-44.773 37.089 18.29 24.004 44.633 35.061 57.795 24.193l-1e-3 1e-3z"/>
						<polygon class="st1" points="1057.7 1373 1065.7 1366.4 1107.7 1417.2 1099.6 1423.9"/>
						<polygon class="st1" points="1074.3 1359.2 1082.3 1352.6 1124.5 1403.2 1116.5 1410"/>
					<path class="st1" d="m1249.8 1421.9c-21.008 18.459-48.979-12.934-27.627-31.697 21.084-18.449 49.106 12.903 27.627 31.697z"/>
					<path class="st1" d="m1229.1 1323.1l-7.076 6.306c26.428 38.7-25.307 83.658-60.014 52.324l-7.227 6.137c42.924 40.937 109.06-16.698 74.317-64.767z"/>
					<path class="st1" d="m1221.7 1389.6c13.851-12.12 4.537-40.78-14.578-60.94-15.585 13.841-29.202 25.609-43.798 38.184 19.143 23.904 45.797 33.823 58.376 22.756z"/>
						<polygon class="st1" points="1131.7 1310.6 1139.5 1303.9 1182.8 1353.7 1174.8 1360.5"/>
						<polygon class="st1" points="1148 1296.5 1155.7 1289.7 1199.3 1339.2 1191.4 1346.2"/>
				<path class="st2" d="m1020.7 1601.5c-4.277 7.949-11.528 15.159-18.753 20.594-56.081 42.194-47.317-35.407-3.781-45.317 16.663-3.768 26.728 16.619 22.534 24.723z"/>
				<path class="st2" d="m998.98 1514l-7.496 5.81c21.18 36.417-23.651 69.727-44.982 65.356-9.463-1.913-13.369-10.461-14.809-19.968l-6.942 5.198c0.587 12.371 4.004 24.666 16.154 27.29 24.12 5.262 87.497-36.087 58.075-83.686z"/>
				<path class="st2" d="m981.88 1583.6c22.823-17.253 10.886-46.02-5.253-65.623-12.727 9.749-26.182 20.02-39.022 29.638 6.514 46.121 28.172 48.13 44.276 35.984l-1e-3 1e-3z"/>
					<polygon class="st2" points="926.14 1477.1 953.41 1539.2 946.55 1544.4"/>
					<path class="st2" d="m926.14 1477.1c3e-3 4e-3 -2e-3 -3e-3 -2e-3 -3e-3 0.013-4e-3 1.872-1.43 1.883-1.438l40.038 52.411-7.189 5.49-34.73-56.46z"/>
					<path class="st3" d="m1095.9 1522.7c17.363 21.724-16.255 48.392-33.441 26.425-17.065-21.817 16.102-48.118 33.441-26.425z"/>
					<path class="st3" d="m1076.3 1452.9l-7.389 5.943c24.253 39.801-28.921 82.673-62.48 49.409l-7.496 5.81c41 42.792 109.54-11.459 77.365-61.162z"/>
					<path class="st3" d="m1065.7 1518.9c13.225-10.496 8.208-38.483-11.6-61.567-27.317 21.736-17.552 14.018-45.627 36.077 17.893 24.592 43.989 35.934 57.227 25.49z"/>
						<polygon class="st3" points="979.55 1435.7 987.7 1429.3 1028.5 1481.1 1020.3 1487.6"/>
						<polygon class="st3" points="996.53 1422.3 1004.6 1415.9 1045.7 1467.5 1037.5 1474"/>
					<path class="st4" d="m1170.4 1489.2c-21.877 18.093-48.411-14.526-26.799-32.4 21.81-17.925 48.593 14.487 26.799 32.4z"/>
					<path class="st4" d="m1152.3 1390l-7.226 6.136c25.295 39.413-27.355 83.065-61.373 50.754l-7.367 5.971c41.9 41.96 109.36-13.83 75.966-62.861z"/>
					<path class="st4" d="m1143.1 1456.3c13.632-11.266 6.449-39.679-12.974-61.293-3.43 2.872-21.065 17.714-44.801 37.056 18.125 23.822 44.497 35.174 57.775 24.237z"/>
						<polygon class="st4" points="1055.2 1375 1063.2 1368.4 1105.2 1419.3 1097.1 1426"/>
						<path class="st4" d="m1071.9 1361.3c4.795-3.96 3.075-2.529 7.946-6.608l42.233 50.658c-4.945 4.14-3.209 2.696-8.074 6.714l-42.105-50.764z"/>
					<path class="st5" d="m1247.3 1424.1c-21.346 18.596-48.883-13.179-27.599-31.721 21.091-18.443 49.089 12.931 27.599 31.721z"/>
					<path class="st5" d="m1226.7 1325.3l-7.087 6.294c26.478 38.967-25.488 83.623-60.062 52.271l-7.227 6.136c42.896 40.982 109.07-16.584 74.376-64.701z"/>
					<path class="st5" d="m1219.2 1391.8c15.844-13.855 0.955-44.6-14.524-60.954-17.737 15.67-24.778 21.697-43.831 38.148 13.434 16.803 42.363 36.805 58.355 22.806z"/>
						<polygon class="st5" points="1129.3 1312.7 1137.1 1306 1180.3 1355.8 1172.4 1362.6"/>
						<polygon class="st5" points="1145.6 1298.6 1153.3 1291.8 1196.8 1341.4 1188.9 1348.3"/>
				<path class="st1" d="m1327.5 1352.2c-21.048 19.345-49.23-11.863-28.554-30.865 20.52-19.134 49.512 11.324 28.554 30.865z"/>
				<path class="st1" d="m1303.8 1254l-6.873 6.522c27.671 38.01-22.852 84.397-58.421 54.062l-7.037 6.349c44.059 39.758 108.67-19.877 72.331-66.933z"/>
				<path class="st1" d="m1298.5 1320.7c12.39-11.553 5.272-38.988-16.41-60.484-12.122 11.56-37.684 34.918-42.614 39.437 13.997 16.492 43.343 35.471 59.024 21.047z"/>
					<polygon class="st1" points="1206.2 1244.4 1213.8 1237.4 1258.5 1285.9 1250.8 1293"/>
					<polygon class="st1" points="1222 1229.9 1229.5 1222.9 1274.5 1271 1266.9 1278.2"/>
					<path class="st1" d="m1400.9 1282.1c-20.474 20.135-49.634-10.162-29.567-29.896 20.549-20.078 49.566 10.351 29.567 29.896z"/>
					<path class="st1" d="m1373.9 1184.7l-6.62 6.774c28.981 36.979-19.903 85.397-56.563 55.961l-6.834 6.563c44.721 37.936 109.11-22.291 70.017-69.298z"/>
					<path class="st1" d="m1370.8 1251.6c15.189-14.823-2.212-44.884-18.438-59.886-7.261 7.284-21.989 22.172-41.254 40.783 14.456 15.97 44.394 34.147 59.692 19.103z"/>
						<polygon class="st1" points="1276.1 1178.4 1283.4 1171.2 1329.7 1218.2 1322.2 1225.5"/>
						<polygon class="st1" points="1291.3 1163.4 1298.5 1156.1 1345.2 1202.8 1337.8 1210.2"/>
					<path class="st1" d="m1471.9 1209c-19.542 20.85-50.076-8.059-30.714-28.716 19.689-20.832 50.271 8.017 30.714 28.716z"/>
					<path class="st1" d="m1441.1 1112.8l-6.317 7.05c30.509 35.706-16.624 86.066-54.292 58.114l-6.613 6.781c46.774 36.843 107.25-27.796 67.222-71.945z"/>
					<path class="st1" d="m1440.7 1179.8c14.518-15.55-4.041-44.839-20.813-59.113-12.94 14.113-26.118 28.366-39.575 42.32 15.106 15.488 45.684 32.435 60.388 16.793z"/>
						<polygon class="st1" points="1343.3 1110.2 1350.2 1102.8 1398.3 1148 1391.1 1155.6"/>
						<path class="st1" d="m1357.8 1094.7c4.25-4.557 2.794-2.984 6.9-7.463l48.495 44.7c-4.335 4.729-2.825 3.094-7.108 7.688l-48.287-44.925z"/>
					<path class="st1" d="m1540.2 1132.6c-18.862 22.099-50.402-5.717-32.02-27.251 18.653-21.788 50.597 5.551 32.02 27.251z"/>
					<path class="st1" d="m1504.8 1037.8l-5.953 7.352c32.764 34.646-12.839 86.723-51.477 60.554l-6.318 7.05c47.744 34.407 106.62-32.306 63.748-74.956z"/>
					<path class="st1" d="m1507.6 1104.8c11.552-13.609-0.366-40.181-23.604-58.063-22.771 27.375-29.209 34.573-37.501 44.05 15.863 14.885 47.132 30.356 61.105 14.013z"/>
						<path class="st1" d="m1407.2 1039.8c1.34-1.535 0.169-0.172 6.571-7.674l50.1 42.894c-6.667 7.811-5.412 6.349-6.803 7.944l-49.868-43.164z"/>
						<path class="st1" d="m1420.9 1023.8c2.975-3.484 1.584-1.832 6.484-7.726l50.591 42.314c-5.06 6.084-3.623 4.378-6.722 8.009l-50.353-42.597z"/>
				<path class="st2" d="m1326.5 1324.4c19.07 20.327-12.729 49.729-31.492 29.094-18.682-20.546 12.572-49.267 31.492-29.094z"/>
				<path class="st2" d="m1301.5 1256.2l-6.873 6.522c27.638 38.058-22.999 84.322-58.477 54.003l-7.037 6.349c44.022 39.8 108.67-19.785 72.387-66.874z"/>
				<path class="st2" d="m1296 1323c12.317-11.366 5.484-38.808-16.335-60.488-6.992 6.511-27.373 25.576-42.671 39.38 13.906 16.417 43.245 35.563 59.006 21.108z"/>
					<polygon class="st2" points="1203.9 1246.5 1211.5 1239.6 1256.1 1288.1 1248.4 1295.2"/>
					<polygon class="st2" points="1219.7 1232 1227.2 1225 1272.2 1273.3 1264.5 1280.4"/>
					<path class="st3" d="m1398.5 1284.4c-20.406 20.083-49.568-10.211-29.532-29.93 20.389-19.92 49.829 10.096 29.532 29.93z"/>
					<path class="st3" d="m1371.6 1187l-6.62 6.773c29.22 37.388-20.229 85.092-56.629 55.896l-6.854 6.542c45.268 38.472 108.08-23.421 70.103-69.211z"/>
					<path class="st3" d="m1368.4 1253.9c15.236-14.892-2.253-44.971-18.37-59.911-25.245 25.323-34.616 34.286-41.298 40.741 14.429 15.978 44.346 34.188 59.668 19.17z"/>
						<polygon class="st3" points="1273.8 1180.6 1281.1 1173.4 1327.4 1220.4 1319.9 1227.8"/>
						<path class="st3" d="m1289.1 1165.6c4.429-4.381 2.949-2.908 7.243-7.216l46.602 46.671c-4.449 4.463-2.842 2.862-7.425 7.397l-46.42-46.852z"/>
					<path class="st4" d="m1469.6 1211.5c-8.211 8.82-21.774 9.324-30.161 1.295-13.339-12.769-4.659-35.945 14.338-36.925 18.951-0.972 29.044 21.483 15.823 35.63z"/>
					<path class="st4" d="m1438.9 1115.2l-6.317 7.05c30.463 35.751-16.8 86.017-54.388 58.026l-6.62 6.774c46.716 36.889 107.21-27.721 67.325-71.85z"/>
					<path class="st4" d="m1438.4 1182.2c12.371-13.199 1.139-40.475-20.734-59.146-14.084 15.361-21.128 22.954-39.628 42.274 15.022 15.437 45.682 32.533 60.362 16.872z"/>
						<path class="st4" d="m1341.1 1112.5c4.286-4.497 2.843-2.972 6.992-7.399l48.003 45.228c-4.387 4.681-2.869 3.073-7.193 7.612l-47.802-45.441z"/>
						<path class="st4" d="m1355.7 1097c5.789-6.175 4.131-4.39 6.929-7.443l48.43 44.771c-2.777 3.029-1.141 1.27-7.135 7.664l-48.224-44.992z"/>
					<path class="st5" d="m1538 1135.1c-18.567 21.93-50.448-5.479-31.975-27.305 18.375-21.62 50.657 5.326 31.975 27.305z"/>
					<path class="st5" d="m1502.8 1040.3l-5.953 7.352c32.171 34.123-12.524 86.981-51.602 60.451l-6.318 7.05c48.306 34.938 106.11-32.672 63.873-74.853z"/>
					<path class="st5" d="m1505.5 1107.3c13.846-16.222-6-44.583-23.511-58.108-19.394 23.317-26.746 31.637-37.564 44 16.096 15.151 47.25 30.306 61.076 14.107l-1e-3 1e-3z"/>
						<path class="st5" d="m1405.1 1042.1c4.082-4.676 2.677-3.05 6.604-7.653l50.028 42.978c-4.074 4.773-2.613 3.081-6.834 7.919l-49.798-43.244z"/>
						<path class="st5" d="m1418.9 1026.1c5.048-5.912 3.662-4.268 6.519-7.704l50.516 42.403c-2.898 3.484-1.453 1.773-6.754 7.983l-50.281-42.682z"/>
				<path class="st1" d="m1607.1 1049.3c-17.841 23.357-50.771-2.806-33.565-25.324 17.056-22.797 51.153 1.821 33.565 25.324z"/>
				<path class="st1" d="m1566 956.8c-1.308 1.903-2.22 3.15-5.483 7.697 35.191 32.732-7.977 87.338-47.795 63.411-3.506 4.454-2.255 2.887-5.898 7.394 51.218 32.924 103.63-39.755 59.176-78.502z"/>
				<path class="st1" d="m1573 1023.6c12.938-17.224-8.582-44.097-27.079-56.574-6.905 9.625-21.347 28.959-34.766 46.081 16.671 13.988 48.684 27.717 61.846 10.491l-1e-3 2e-3z"/>
					<polygon class="st1" points="1468.9 964.39 1475 956.44 1527.5 996.36 1521.1 1004.7"/>
					<polygon class="st1" points="1481.5 947.78 1487.5 939.76 1540.5 978.92 1534.3 987.31"/>
					<path class="st1" d="m1667.1 963.84c-15.845 24.414-51.043 1.412-35.274-22.884 15.51-24.069 51.328-2.023 35.274 22.884z"/>
					<path class="st1" d="m1619.4 874.38l-4.815 8.116c37.347 29.699-1.261 88.155-43.154 66.542l-5.385 7.765c52.01 28.996 102.62-45.887 53.354-82.423z"/>
					<path class="st1" d="m1631.2 940.55c11.281-17.561-10.154-42.536-31.109-54.47-7.402 11.958-10.854 17.798-31.28 48.314 17.558 12.852 50.813 24.41 62.391 6.155l-2e-3 1e-3z"/>
						<path class="st1" d="m1523.3 888.71c5.484-8.193 4.361-6.502 5.48-8.222l55.163 36.151c-1.125 1.728-0.138 0.243-5.777 8.67l-54.866-36.599z"/>
						<path class="st1" d="m1534.6 871.49c5.289-8.204 4.244-6.569 5.315-8.287l55.8 35.16c-1.077 1.727-0.142 0.265-5.619 8.765l-55.496-35.638z"/>
					<path class="st1" d="m1707.9 883.76c-26.314 8.877-38.573-32.376-11.551-41.807 27.756-9.703 38.698 32.712 11.551 41.807z"/>
					<path class="st1" d="m1665.1 787.66c-3.667 8.01-3.182 6.953-3.957 8.548 39.889 25.678 6.875 88.331-36.927 70.04-0.92 1.602-0.122 0.247-4.798 8.126 54.871 25.103 97.674-55.875 45.682-86.714z"/>
					<path class="st1" d="m1683.1 852.58c10.107-19.449-15.416-42.183-36.035-51.426-7.07 14.56-16.386 32.419-26.756 50.698 18.941 11.564 52.352 20.019 62.792 0.727l-1e-3 1e-3z"/>
						<polygon class="st1" points="1571.1 810.33 1575.7 801.81 1633.9 832.94 1628.9 842.08"/>
						<polygon class="st1" points="1580.6 792.52 1585 783.94 1643.9 813.74 1639.1 822.97"/>
					<path class="st1" d="m1767.3 769.86c-1.645 9.766-10.248 19.112-21.144 19.448-22.393 0.74-29.424-32.108-8.058-42.693 15.695-7.827 32.4 5.043 29.202 23.245z"/>
					<path class="st1" d="m1700.4 696.47c-0.187 0.604-2.583 8.378-2.791 8.973 43.872 20.842 16.655 87.278-28.568 73.649l-3.921 8.565c56.604 19.222 91.726-66.997 35.28-91.187z"/>
					<path class="st1" d="m1726.1 758.9c6.697-16.693-12.821-37.929-41.885-46.827-6.379 18.758-12.961 35.305-20.622 53.151 20.659 9.753 54.375 14.027 62.507-6.325v1e-3z"/>
						<polygon class="st1" points="1610.2 729.46 1613.7 720.7 1675 745.04 1671.1 754.64"/>
						<polygon class="st1" points="1617.4 711.17 1620.6 702.37 1682.6 724.9 1679 734.58"/>
				<path class="st2" d="m1605 1052.1c-17.798 23.314-50.748-2.821-33.513-25.393 17.874-23.09 50.958 2.846 33.513 25.393z"/>
				<path class="st2" d="m1564.2 959.45l-5.51 7.679c35.084 32.783-8.175 87.308-47.911 63.326-1.381 1.759-2.201 2.756-5.934 7.367 50.247 32.456 104.32-38.958 59.355-78.372z"/>
				<path class="st2" d="m1570.9 1026.2c13.055-16.895-8.649-44.217-26.93-56.609-0.696 1-16.432 22.56-34.884 45.999 16.647 14.021 48.621 27.806 61.815 10.608l-1e-3 2e-3z"/>
					<polygon class="st2" points="1467 966.85 1473.1 958.9 1525.5 998.92 1519.2 1007.2"/>
					<polygon class="st2" points="1479.7 950.26 1485.6 942.24 1538.6 981.51 1532.4 989.9"/>
					<path class="st3" d="m1665.3 966.75c-15.535 24.409-50.948 1.769-35.214-22.977 15.339-23.8 51.583-2.383 35.214 22.977z"/>
					<path class="st3" d="m1617.7 877.16l-4.815 8.117c37.671 30.107-1.788 88.001-43.349 66.422-5.288 7.625-4.298 6.208-5.4 7.754 52.436 29.413 101.62-46.437 53.564-82.293z"/>
					<path class="st3" d="m1629.4 943.37c10.31-16.081-6.999-40.818-30.98-54.564-14.516 23.452-29.445 45.411-31.424 48.228 17.939 13.194 50.968 24.374 62.405 6.335l-1e-3 1e-3z"/>
						<polygon class="st3" points="1521.6 891.25 1527.1 883.03 1582.2 919.32 1576.4 927.98"/>
						<polygon class="st3" points="1533 874.04 1538.3 865.76 1594 901.08 1588.4 909.83"/>
					<path class="st4" d="m1719.3 875.66c-14.334 26.547-50.748 5.475-37.115-19.759 13.654-25.318 51.591-7.095 37.115 19.759z"/>
					<path class="st4" d="m1663.7 790.6c-2.419 5.265-1.547 3.419-4.025 8.518 39.893 25.881 6.499 88.341-37.148 69.927l-4.816 8.116c53.473 24.628 98.594-55.012 45.989-86.561z"/>
					<path class="st4" d="m1681.5 855.55c8.281-15.018-7.414-38.67-35.825-51.527-5.392 11.106-14.702 29.036-26.94 50.612 24.457 15.038 53.914 17.298 62.765 0.915z"/>
						<polygon class="st4" points="1569.7 812.96 1574.3 804.44 1632.3 835.76 1627.4 844.9"/>
						<polygon class="st4" points="1579.3 795.17 1583.7 786.59 1642.4 816.59 1637.7 825.82"/>
					<path class="st5" d="m1752.9 790.63c-25.677 11.791-41.657-28.101-15.964-40.768 26.669-13.225 42.314 28.415 15.964 40.768z"/>
					<path class="st5" d="m1699.4 699.55c-1.973 6.379-1.487 4.86-2.878 8.946 43.022 20.682 16.776 87.445-28.873 73.534l-3.921 8.565c57.391 19.786 91.608-66.752 35.672-91.045z"/>
					<path class="st5" d="m1724.9 762.07c6.29-15.861-10.967-37.448-41.639-46.994-6.04 17.776-13.425 35.76-20.856 53.073 26.776 12.771 55.674 10.981 62.496-6.081l-1e-3 2e-3z"/>
						<path class="st5" d="m1609 732.15c0.814-1.891 0.375-0.804 3.549-8.752l61.193 24.602c-3.483 8.708-2.782 7.001-3.888 9.579l-60.854-25.429z"/>
						<polygon class="st5" points="1616.4 713.88 1619.6 705.09 1681.5 727.89 1677.9 737.57"/>
				<path class="st1" d="m1799.4 664.98c-2.436 12.018-13.915 21.099-25.876 18.021-17.112-4.404-22.067-29.163-5.916-41.417 15.96-11.885 36.257 2.541 31.792 23.396z"/>
				<path class="st1" d="m1722.1 598.18c-0.139 1.261 0.058-0.174-1.324 9.277 46.246 12.949 30.883 84.289-16.762 76.943-0.964 3.471-0.367 1.468-2.698 8.999 59.157 11.474 81.19-81.178 20.784-95.219z"/>
				<path class="st1" d="m1757.6 655.82c4.642-21.718-25.773-36.606-48.718-39.633-3.324 18.446-6.625 35.478-12.138 55.29 30.542 9.363 57.193 1.401 60.857-15.658l-1e-3 1e-3z"/>
					<polygon class="st1" points="1638.5 644.09 1640.7 635.22 1705 649.99 1702.5 659.97"/>
					<path class="st1" d="m1642.7 625.58c1.434-6.673 1.05-4.717 1.788-8.865l64.798 12.293c-0.821 4.561-0.395 2.421-2.027 10.062l-64.559-13.49z"/>
					<path class="st1" d="m1813.5 552.03c-0.848 22.314-24.271 30.569-36.529 15.284-7.909-9.567-7.102-23.858 0.81-32.55 14.42-15.768 36.774-2.925 35.719 17.266z"/>
					<path class="st1" d="m1724.5 501.07l0.682 9.324c49.079 3.294 46.046 77.476-2.094 78.479l-1.036 9.31c62.044 1.481 65.065-95.642 2.448-97.113z"/>
					<path class="st1" d="m1770.7 550.87c0.674-20.276-27.848-31.482-55.532-29.587 0.975 27.931-0.673 45.777-1.465 56.185 22.649 2.722 56.049-3.831 56.997-26.599v1e-3z"/>
						<path class="st1" d="m1651.6 561.2c0.1-1.01 0.091-1.329 0.381-8.77l65.904 2.566c-0.352 8.854-0.345 9.07-0.452 10.206l-65.833-4.002z"/>
						<polygon class="st1" points="1652.3 542.92 1652.3 534.19 1718.2 533.69 1718.2 543.9"/>
					<path class="st1" d="m1801.1 454.51c-14.862 24.184-49.951-1.751-35.645-27.523 15.071-27.096 51.311 1.786 35.645 27.523z"/>
					<path class="st1" d="m1706 405.89c2.446 7.666 1.87 5.776 2.743 8.932 48.274-7.602 62.564 65.867 14.977 76.941 0.549 4.864 0.368 2.874 0.836 9.309 60.177-11.182 43.336-107.84-18.556-95.182z"/>
					<path class="st1" d="m1762 444.36c-2.902-16.265-27.862-26.563-60.622-16.711 4.634 16.69 9.221 41.506 10.723 54.962 23.64-2.204 54.169-16.198 49.898-38.252l1e-3 1e-3z"/>
						<path class="st1" d="m1647.9 480.1c-1.021-6.795-0.672-4.756-1.403-8.474l64.896-11.762c0.82 4.222 0.458 2.092 1.668 10.043l-65.161 10.193z"/>
						<path class="st1" d="m1644.7 462.47c-0.358-2.05-0.703-3.333-1.898-8.367l64.219-15.028c1.372 5.817 1.801 7.467 2.244 9.929l-64.565 13.466z"/>
					<path class="st1" d="m1763.2 316.28c3.484 3.586 6.019 8.207 7.279 13.033 7.2 26.898-27.924 39.128-40.048 12.458-10.626-23.37 15.223-43.942 32.769-25.491z"/>
					<path class="st1" d="m1666.1 317.64c4.345 7.104 3.79 6.187 4.797 7.997 45.462-19.03 75.739 50.105 32.205 71.342l2.838 8.902c57.847-25.061 16.347-114.99-39.84-88.241z"/>
					<path class="st1" d="m1729.7 342.09c-7.574-16.657-35.265-18.399-62.864-2.282 5.333 9.56 15.412 30.199 22.908 50.9 22.677-7.51 49.292-28.087 39.956-48.619v1e-3z"/>
						<path class="st1" d="m1626.7 402.8c-0.203-0.5-3.002-7.426-3.211-7.845l60.516-26.224c0.279 0.574 3.62 8.808 3.861 9.399l-61.166 24.67z"/>
						<path class="st1" d="m1619.6 386.61c-1.702-3.771-0.82-1.945-3.678-7.57l58.996-29.484c3.364 6.66 2.319 4.482 4.432 9.13l-59.75 27.924z"/>
				<path class="st2" d="m1788.7 683.52c-23.223 15.902-45.406-21.568-21.752-38.485 24.562-17.88 45.974 21.91 21.752 38.485z"/>
				<path class="st2" d="m1721.7 601.36l-1.355 9.274c46.828 13.416 29.431 84.301-17.17 76.863l-2.778 8.977c59.717 11.884 81.518-80.695 21.303-95.114z"/>
				<path class="st2" d="m1756.9 659.21c3.912-18.27-18.766-35.814-48.552-39.922-3.438 19.09-6.496 33.926-12.427 55.237 21.427 6.686 56.569 6.462 60.98-15.316l-1e-3 1e-3z"/>
					<polygon class="st2" points="1637.8 646.82 1640 637.96 1704.2 653.07 1701.8 663.06"/>
					<path class="st2" d="m1642.2 628.32c0.117-0.548 1.804-8.382 1.885-8.865l64.725 12.673c-0.103 0.599-2.001 9.451-2.128 10.046l-64.482-13.854z"/>
					<path class="st3" d="m1806.4 572.76c-20.17 20.198-48.268-13.059-28.606-34.439 20.784-22.642 49.875 13.166 28.606 34.439z"/>
					<path class="st3" d="m1724.8 504.26c0.703 9.627 0.615 8.251 0.651 9.326 49.461 3.746 45.124 77.775-2.652 78.472-0.606 5.438-0.75 7.017-1.114 9.302 62.822 1.939 64.619-95.214 3.115-97.1z"/>
					<path class="st3" d="m1770.6 554.38c0.671-17.108-22.065-32.003-55.286-29.967 0.852 24.407-1.088 46.663-1.809 56.187 23.335 2.959 56.216-3.948 57.095-26.222v2e-3z"/>
						<path class="st3" d="m1651.4 563.91c0.339-4.337 0.261-2.79 0.487-8.78l65.885 3.011c-0.277 7.011-0.151 4.76-0.567 10.203l-65.805-4.434z"/>
						<polygon class="st3" points="1652.3 545.61 1652.3 536.88 1718.2 536.84 1718.2 547.05"/>
					<path class="st4" d="m1801.6 458.27c-14.714 23.743-50.059-1.621-35.401-27.793 15.233-27.145 51.258 2.187 35.401 27.793z"/>
					<path class="st4" d="m1707 408.94c1.406 4.409 0.797 2.372 2.625 8.968 48.749-7.249 61.39 66.478 14.481 77.037 0.12 1.072 0-0.419 0.711 9.321 59.393-10.597 44.708-107.62-17.817-95.326z"/>
					<path class="st4" d="m1762.7 447.84c-4.29-22.23-37.984-23.753-60.457-17.172 1.283 3.974 7.573 31.281 10.234 55.056 23.621-2.027 54.478-15.834 50.223-37.885v1e-3z"/>
						<polygon class="st4" points="1648.3 482.72 1647 474.23 1712 462.95 1713.5 473.02"/>
						<path class="st4" d="m1645.2 465.07c-0.985-5.174-0.607-3.382-1.785-8.392l64.33-14.547c1.417 6.087 0.959 3.949 2.119 9.956l-64.664 12.983z"/>
					<path class="st5" d="m1764.8 319.82c4.329 4.473 7.541 10.8 7.886 17.899 1.512 31.193-41.157 28.437-43.016-1.564-1.376-20.7 20.358-31.476 35.13-16.335z"/>
					<path class="st5" d="m1667.8 320.37c2.664 4.354 1.674 2.654 4.683 8.064 45.93-18.703 75.193 50.654 31.623 71.6l2.839 8.902c59.119-25.092 16.405-114.44-39.145-88.566z"/>
					<path class="st5" d="m1731.2 345.33c-8.573-18.89-38.973-16.468-62.822-2.806 8.659 17.165 14.292 28.567 22.456 51.117 31.543-10.178 47.558-32.461 40.365-48.312l1e-3 1e-3z"/>
						<polygon class="st5" points="1627.7 405.22 1624.5 397.37 1685.2 371.62 1689 381.03"/>
						<path class="st5" d="m1620.7 388.98c-2.831-6.257-2.068-4.66-3.58-7.629l59.235-29.002c1.733 3.429 0.922 1.721 4.318 9.187l-59.973 27.444z"/>
				<path class="st1" d="m1709.2 228.78c10.058 29.081-31.534 38.92-41.987 9.826-1.978-5.476-1.982-11.509 0.169-16.847 7.594-18.757 34.634-13.75 41.818 7.021z"/>
				<path class="st1" d="m1603.4 239.98l6.656 6.53c38.764-30.136 86.688 28.604 49.438 60.543 2.482 3.651 2.773 4.198 5.012 7.862 49.427-38.304-13.035-116.25-61.106-74.935z"/>
				<path class="st1" d="m1671.1 247.08c-13.637-17.098-43.584-3.892-61.352 14.165 17.314 18.418 29.83 34.977 35.241 43.078 20.348-13.209 40.185-39.597 26.11-57.244l1e-3 1e-3z"/>
					<path class="st1" d="m1587.2 332.2c-2.168-2.989-0.984-1.444-5.087-6.574l51.71-40.939c4.893 6.145 3.5 4.323 6.196 8.014l-52.819 39.499z"/>
					<polygon class="st1" points="1576.4 318.61 1570.9 312.32 1620.2 268.48 1626.8 276.14"/>
					<path class="st1" d="m1585.6 141.46c13.1-20.037 47.87-1.956 42.67 20.951-1.742 7.717-8.247 14-18.422 14.778-19.87 1.432-33.915-20.944-24.248-35.729z"/>
					<path class="st1" d="m1525.3 182.76c2.891 1.577 1.121 0.552 8.071 4.697 30.521-39.065 90.451 6.81 63.111 46.256 0.486 0.439 6.448 5.804 6.898 6.276 38.092-49.455-41.822-108.74-78.08-57.229z"/>
					<path class="st1" d="m1592.6 172.73c-18.089-12.782-43.179 7.303-55.843 29.027 27.759 18.047 34.897 24.576 44.995 32.992 22.098-24.299 25.143-51.602 10.848-62.02v1e-3z"/>
						<polygon class="st1" points="1532.9 276.32 1526.2 271.21 1565.9 218.55 1574 224.73"/>
						<path class="st1" d="m1518.8 265.81c-6.993-4.953-5.323-3.812-6.918-4.839l36.788-54.74c1.704 1.106 0.239 0.093 8.327 5.812l-38.197 53.767z"/>
					<path class="st1" d="m1485.7 91.226c6.744-18.189 35.166-16.388 43.687 2.078 11.763 25.478-29.282 40.722-42.544 14.196-2.529-4.995-3.161-10.83-1.143-16.274z"/>
					<path class="st1" d="m1436 144.74c2.214 0.647 0.512 0.105 8.909 2.876 21.32-44.612 89.198-14.179 72.215 30.66l8.201 4.476c24.416-56.368-64.678-96.015-89.325-38.012z"/>
					<path class="st1" d="m1499.2 120.01c-18.296-7.522-39.244 13.709-47.817 40.835 20.798 7.681 31.871 12.108 51.645 21.967 15.82-29.06 12.099-56.241-3.83-62.803l2e-3 1e-3z"/>
						<polygon class="st1" points="1465.1 234.67 1457.3 231.09 1483.8 170.7 1493 174.9"/>
						<path class="st1" d="m1448.5 227.44c-5.029-2.07-6.121-2.557-8.092-3.244l23.603-61.586c2.353 0.832 3.881 1.497 9.474 3.792l-24.985 61.038z"/>
					<path class="st1" d="m1425.2 64.164c5.412 26.074-37.94 34.895-45.418 7.275-7.731-28.444 39.647-34.934 45.418-7.275z"/>
					<path class="st1" d="m1340.6 124.96l9.315 1.15c12.814-47.585 84.121-30.679 77.034 16.011l8.99 2.627c11.884-60.009-81.719-80.129-95.339-19.788z"/>
					<path class="st1" d="m1397.9 88.688c-21.789-4.502-36.313 26.374-39.057 49.309 25.482 3.948 40.176 7.559 55.322 11.44 8.739-29.142 1.92-56.742-16.266-60.75l1e-3 1e-3z"/>
						<polygon class="st1" points="1387.4 207.84 1378.6 205.91 1392.7 141.47 1402.7 143.68"/>
						<polygon class="st1" points="1369.1 203.93 1360.2 202.26 1371.7 137.31 1381.7 139.2"/>
				<path class="st2" d="m1674.7 217.65c11.2-10.072 31.015-3.083 36.955 14.211 6.635 19.401-12.12 34.713-30.732 23.591-13.652-8.135-17.332-27.813-6.223-37.802z"/>
				<path class="st2" d="m1605.7 242.22l6.657 6.529c39.036-29.987 86.48 29.409 48.934 60.96 0.543 0.764 1.001 1.552 4.901 7.933 50.982-38.835-12.97-115.58-60.492-75.422z"/>
				<path class="st2" d="m1673.4 249.87c-14.344-18.014-44.943-2.869-61.455 13.631 13.639 14.511 26.306 30.628 34.841 43.397 27.054-17.243 38.05-42.668 26.613-57.03l1e-3 2e-3z"/>
					<path class="st2" d="m1588.7 334.28c-3.781-5.204-2.612-3.67-4.996-6.645l52.057-40.497c2.83 3.553 1.522 1.833 6.092 8.094l-53.153 39.048z"/>
					<path class="st2" d="m1578 320.56c-0.208-0.273-5.209-6.03-5.434-6.29l49.64-43.426c0.425 0.491 6.216 7.162 6.613 7.675l-50.819 42.041z"/>
					<path class="st3" d="m1588.8 143.49c6.417-9.639 19.535-10.738 30.172-4.446 19.948 12.218 15.535 39.389-6.202 40.385-19.813 1.069-33.947-20.933-23.97-35.939z"/>
					<path class="st3" d="m1528.1 184.31l8.021 4.784c31.016-39.082 90.188 7.734 62.733 46.76 4.922 4.448 3.305 2.933 6.808 6.371 38.559-49.451-41.136-108.74-77.562-57.915z"/>
					<path class="st3" d="m1595.5 174.86c-11.917-9.43-37.631-2.498-56.09 28.603 26.053 16.924 34.994 25.138 44.773 33.282 16.497-17.84 28.86-48.451 11.316-61.886l1e-3 1e-3z"/>
						<path class="st3" d="m1534.9 277.96c-1.527-1.321-2.555-2.058-6.617-5.167l40.141-52.332c4.728 3.629 6.1 4.632 7.991 6.251l-41.515 51.248z"/>
						<polygon class="st3" points="1521 267.31 1514.1 262.44 1551.3 207.99 1559.6 213.86"/>
					<path class="st4" d="m1489.1 92.496c10.171-26.804 56.158-6.606 43.648 18.887-11.839 24.172-53.322 6.602-43.648-18.887z"/>
					<path class="st4" d="m1439 145.69l8.891 2.934c21.465-44.177 89.365-13.69 71.978 31.189 0.553 0.302 7.656 4.164 8.19 4.495 25.339-56.971-64.436-95.768-89.059-38.618z"/>
					<path class="st4" d="m1502.5 121.36c-17.748-7.415-38.928 12.148-48.127 40.572 28.583 10.548 41.513 17.296 51.502 22.273 14.725-26.584 13.944-55.028-3.376-62.846l1e-3 1e-3z"/>
						<polygon class="st4" points="1467.6 235.76 1459.7 232.2 1486.6 171.99 1495.9 176.2"/>
						<polygon class="st4" points="1451 228.46 1443 225.14 1467 163.72 1476.4 167.6"/>
					<path class="st5" d="m1410.2 47.571c13.879 3.108 21.172 15.038 18.401 25.895-6.743 26.416-50.278 16.987-45.654-9.782-1e-3 -7.067 11.036-19.684 27.253-16.113z"/>
					<path class="st5" d="m1343.8 125.35c0.611 0.075 8.708 1.066 9.313 1.165 13.086-47.783 84.21-29.541 76.925 16.503 8.824 2.578 7.168 2.079 8.975 2.674 12.016-58.935-81.141-81.166-95.213-20.342z"/>
					<path class="st5" d="m1401.3 89.438c-16.028-3.744-35.168 15.752-39.338 49.043 26.183 4.057 44.41 8.96 55.25 11.735 9.193-29.98 1.699-56.891-15.913-60.779l1e-3 1e-3z"/>
						<path class="st5" d="m1390.1 208.52c-3.125-0.808-1.082-0.331-8.722-2.012l14.412-64.36c8.654 1.914 6.496 1.413 9.984 2.308l-15.674 64.064z"/>
						<polygon class="st5" points="1371.8 204.43 1362.9 202.78 1374.8 137.89 1384.9 139.78"/>
				<path class="st1" d="m1306.9 40.388c20.81 19.394-11.834 48.679-33.997 29.523-23.278-20.086 11.927-50.137 33.997-29.523z"/>
				<path class="st1" d="m1240.4 123.99l9.293-0.865c2.008-48.505 76.766-48.286 78.394 0.433 7.055 0.703 5.712 0.559 9.314 1.005 0.634-62.364-97.41-62.621-97.001-0.573z"/>
				<path class="st1" d="m1289.3 76.613c-17.126-0.24-31.509 22.994-28.399 56.196 18.008-1.002 36.028-1.213 56.021 0.326 2.381-22.697-4.818-56.365-27.624-56.521l2e-3 -1e-3z"/>
					<path class="st1" d="m1301.7 195.58c-5.195-0.198-3.348-0.139-8.651-0.281l1.35-65.94c6.255 0.167 4.079 0.098 10.189 0.33l-2.888 65.891z"/>
					<polygon class="st1" points="1283.7 195.26 1275.1 195.42 1273.1 129.49 1283.3 129.31"/>
					<path class="st1" d="m1153.4 73.977c-8.412-27.628 42.242-39.444 47.365-11.511 4.843 26.417-39.481 37.409-47.365 11.511z"/>
					<path class="st1" d="m1146.5 146.89l8.708-3.307c-10.849-48.591 63.472-64.868 75.943-18.403 8.329-1.097 8.612-1.149 9.252-1.193-13.119-61.147-110.85-38.765-93.903 22.903z"/>
					<path class="st1" d="m1182.1 88.727c-21.843 5.555-22.2 38.059-13.694 61.445 14.299-4.813 32.09-9.371 54.041-13.116-4.389-33.86-24.119-52.656-40.348-48.328l1e-3 -1e-3z"/>
						<polygon class="st1" points="1222.6 201.24 1214.5 202.95 1199.9 138.63 1209.8 136.54"/>
						<path class="st1" d="m1205.7 205.1c-4.686 1.167-2.651 0.609-7.958 2.183l-18.319-63.359c6.398-1.88 4.231-1.288 9.759-2.677l16.518 63.853z"/>
					<path class="st1" d="m1049.4 121.56c-10.192-16.112 8.85-38.481 29.618-33.805 19.191 4.318 20.044 29.489 1.589 39.755-10.443 5.905-24.809 4.165-31.207-5.95z"/>
					<path class="st1" d="m1062 193.68l7.561-5.457c-23.497-44.36 44.464-78.996 68.34-37.825 6.323-2.686 4.032-1.758 8.63-3.503-28.839-56.079-116.62-7.493-84.531 46.785z"/>
					<path class="st1" d="m1080.9 128.17c-15.856 9.05-15.774 36.29 3.092 62.891 17.682-11.826 32.465-19.371 48.587-26.957-9.931-23.856-33.119-46.803-51.681-35.933l2e-3 -1e-3z"/>
						<polygon class="st1" points="1149.7 225.97 1142.4 229.76 1111.3 171.59 1120.3 166.94"/>
						<path class="st1" d="m1134.6 234.12c-3.783 2.131-1.998 1.061-7.093 4.22l-34.477-56.225c6.042-3.728 4.021-2.526 8.697-5.173l32.873 57.178z"/>
					<path class="st1" d="m964.46 161.37c6.924-6.765 17.349-9.358 25.551-5.927 20.216 8.497 12.15 41.978-12.533 43.487-20.524 1.237-28.872-22.371-13.018-37.56z"/>
					<path class="st1" d="m991.71 260.34l6.105-7.08c-32.616-36.813 22.834-87.675 56.781-53.918 4.312-3.351 5.534-4.341 7.41-5.662-41.5-45.648-114.22 21.442-70.296 66.66z"/>
					<path class="st1" d="m993.96 192.37c-12.464 11.627-6.902 38.243 18.597 60.114 13.668-14.884 24.954-25.546 40.491-38.506-14.136-18.357-42.517-37.447-59.089-21.607l1e-3 -1e-3z"/>
						<polygon class="st1" points="1085.4 269.48 1079.1 275.11 1034.3 226.71 1041.8 219.94"/>
						<path class="st1" d="m1072.4 281.49c-1.695 1.61-0.389 0.315-6.007 6.059l-47.277-45.986c6.438-6.575 5.186-5.329 7.164-7.219l46.12 47.146z"/>
				<path class="st2" d="m1316.9 55.784c-1.685 27.03-46.795 26.291-47.728-0.668 0-29.107 49.47-27.386 47.728 0.668z"/>
				<path class="st2" d="m1243.6 123.69l9.293-0.866c2.271-48.358 77.098-47.683 78.402 1.042 4.025 0.418 2.359 0.228 9.314 1.088 0.852-61.579-96.926-63.751-97.009-1.264z"/>
				<path class="st2" d="m1292.8 76.653c-17.085-0.246-31.687 22.569-28.818 55.983 19.622-1.092 39.312-0.673 56.034 0.733 3.627-32.433-9.666-56.467-27.217-56.716h1e-3z"/>
					<path class="st2" d="m1304.4 195.7c-5.203-0.236-3.35-0.163-8.663-0.343l1.829-65.928c6.255 0.212 4.079 0.127 10.189 0.403l-3.355 65.868z"/>
					<path class="st2" d="m1286.3 195.22c-0.373-9e-3 -8.192 0.147-8.565 0.154l-1.482-65.937c9.282-0.17 9.489-0.185 10.177-0.17l-0.13 65.953z"/>
					<path class="st3" d="m1157.1 72.912c-8.15-27.634 42.523-39.215 47.441-11.082 4.583 26.248-39.72 37.264-47.441 11.082z"/>
					<path class="st3" d="m1149.5 145.76c7.776-2.953 5.787-2.226 8.741-3.217-10.318-48.762 64.029-64.236 76.096-17.777 6.694-0.882 4.386-0.618 9.267-1.072-12.914-61.848-110.21-38.608-94.104 22.066z"/>
					<path class="st3" d="m1185.6 87.857c-20.923 5.228-22.98 36.608-14.233 61.326 11.609-4.243 35.523-9.464 54.166-12.652-3.845-31.754-22.044-52.732-39.935-48.674h2e-3z"/>
						<path class="st3" d="m1225.1 200.73c-0.399 0.053-7.735 1.616-8.128 1.699l-14.012-64.448c9.015-1.901 9.238-1.966 9.917-2.062l12.223 64.811z"/>
						<path class="st3" d="m1208.2 204.48c-5.131 1.284-6.159 1.503-7.994 2.083l-17.762-63.517c2.364-0.731 3.979-1.097 9.792-2.559l15.964 63.993z"/>
					<path class="st4" d="m1052.6 119.58c-10.323-16.638 9.796-38.348 29.9-33.59 19.979 4.962 18.968 30.479 1.227 39.756-10.395 5.912-24.853 3.946-31.127-6.166z"/>
					<path class="st4" d="m1064.6 191.81c5.851-4.223 6.584-4.781 7.584-5.422-22.404-43.323 44.344-80.035 68.663-37.237 2.091-0.927 3.558-1.446 8.676-3.388-28.364-56.421-116.53-8.252-84.923 46.047z"/>
					<path class="st4" d="m1084.1 126.41c-19.927 11.242-11.172 43.228 2.549 62.929 15.791-10.566 41.091-23.453 48.825-26.518-11.642-28.691-34.544-45.285-51.375-36.41l1e-3 -1e-3z"/>
						<path class="st4" d="m1152 224.86c-1.973 0.917-0.37 0.123-7.325 3.732l-30.57-58.441c8.379-4.339 6.7-3.498 9.015-4.585l28.88 59.294z"/>
						<path class="st4" d="m1136.8 232.86c-6.598 3.726-4.713 2.622-7.138 4.13l-33.987-56.523c2.824-1.743 0.787-0.56 8.756-5.071l32.369 57.464z"/>
					<path class="st5" d="m964.53 190.9c-21.014-20.251 17.186-54.252 35.15-32.9 17.303 20.533-15.641 51.702-35.15 32.9z"/>
					<path class="st5" d="m993.8 257.91l6.104-7.08c-32.801-37.421 23.726-87.2 57.213-53.453 3.798-2.952 2.132-1.714 7.478-5.57-40.871-45.481-114.65 20.302-70.795 66.103z"/>
					<path class="st5" d="m996.53 189.92c-13.272 12.69-5.813 39.407 18.143 60.266 13.849-15.092 25.529-25.481 40.766-38.2-13.853-18.295-42.249-37.828-58.91-22.065l1e-3 -1e-3z"/>
						<polygon class="st5" points="1087.3 267.73 1081 273.37 1036.6 224.62 1044.2 217.84"/>
						<path class="st5" d="m1074.3 279.68c-3.776 3.594-2.482 2.319-6.061 5.984l-46.925-46.346c4.37-4.458 2.825-2.929 7.235-7.144l45.751 47.506z"/>
</g>
</svg>
